<svg width="588" height="658" viewBox="0 0 588 658" fill="none" xmlns="http://www.w3.org/2000/svg">
<path d="M322.935 335.45C325.413 332.378 327.891 329.306 330.96 326.45C336.092 326.11 340.63 325.1 345.173 325.074C371.399 324.921 397.626 325.045 423.852 324.912C425.895 324.902 427.931 323.646 429.976 322.504C429.983 295.122 429.934 268.205 430.031 241.289C430.049 236.516 430.674 231.745 431.272 226.745C431.631 225.625 431.736 224.732 431.84 223.839C431.84 223.839 431.977 223.998 432.258 223.902C432.837 223.079 433.135 222.352 433.433 221.625C433.433 221.625 433.529 221.609 433.935 221.593C438.816 220.707 443.289 219.101 447.769 219.08C488.496 218.884 529.224 218.96 569.951 218.977C573.029 218.978 576.107 219.145 579.185 219.235C579.185 219.235 579.532 219.25 579.533 219.723C580.48 220.598 581.425 221.001 582.37 221.403C582.37 221.403 582.421 221.507 582.419 221.9C583.438 223.265 584.459 224.238 585.48 225.211C585.48 225.211 585.755 225.441 585.576 225.88C585.611 226.875 585.825 227.431 586.025 228.411C585.676 231.77 585.028 234.708 585.067 237.638C585.162 244.717 585.815 251.791 585.803 258.867C585.79 267.184 584.945 275.509 585.139 283.815C585.342 292.517 586.35 301.201 587.007 310.368C587.005 418.584 586.997 526.324 587.028 634.065C587.029 636.339 587.473 638.612 587.71 640.885C586.373 647.202 583.936 652.714 576.461 655.083C526.758 655.346 477.871 655.657 428.686 655.677C428.074 655.281 427.76 655.08 427.448 655.083C383.386 655.386 339.325 655.701 295.264 656.06C294.518 656.066 293.777 656.623 292.563 656.95C222.323 656.985 152.554 656.986 82.7851 657.036C80.8702 657.038 78.9557 657.573 77.0411 657.86C66.6213 657.657 56.1694 657.887 45.7918 657.116C37.3205 656.486 32.6893 650.86 31.3687 642.019C31.7966 639.523 31.9589 637.712 31.9827 635.899C32.3116 610.892 32.6213 585.884 32.9358 560.876C32.9358 560.876 32.9523 560.972 33.174 560.86C33.5395 560.399 33.6833 560.05 33.827 559.701C33.827 559.701 33.7177 559.854 33.8694 559.82C34.151 559.745 34.2809 559.705 34.4108 559.665C34.2902 559.447 34.1696 559.229 34.0489 559.011C37.4755 556.736 40.9022 554.461 45.0131 552.46C46.5187 552.824 47.3401 552.993 48.1615 552.993C103.106 552.991 158.051 552.976 213.335 552.974C214.449 552.66 215.224 552.333 215.999 552.006C215.999 552.006 216.002 551.998 216.392 551.874C217.182 550.268 217.918 548.788 217.933 547.3C218.278 513.486 218.544 479.672 218.826 445.857C218.826 445.857 218.651 445.934 218.955 445.787C219.421 445.005 219.582 444.369 219.744 443.733C219.744 443.733 219.64 443.818 219.828 443.799C220.149 443.735 220.282 443.691 220.414 443.646C220.282 443.425 220.15 443.205 220.017 442.984C219.96 442.626 220.076 442.338 220.951 442.017C221.973 441.197 222.41 440.482 222.848 439.767C222.848 439.767 222.887 439.862 223.185 439.878C223.798 439.43 224.114 438.966 224.43 438.502C224.43 438.502 224.567 438.495 224.911 438.579C225.463 438.35 225.67 438.037 225.878 437.725C225.878 437.725 225.92 437.841 226.292 437.893C235.227 437.301 243.786 436.212 252.357 436.1C273.154 435.829 293.957 436.034 314.758 435.973C316.499 435.967 318.238 435.405 319.978 435.101C319.978 435.101 320.368 434.934 320.927 434.703C321.657 433.509 321.979 432.545 321.979 431.582C321.97 400.675 321.93 369.768 321.894 338.86C321.894 338.86 321.88 339.004 322.156 338.783C322.599 337.524 322.767 336.487 322.935 335.45Z" fill="#147BC6"/>
<path d="M235.053 377.164C235.053 377.164 235.051 377.596 234.723 378.054C233.946 381.724 233.498 384.937 233.049 388.149C233.049 388.149 233.037 388.592 232.71 389.056C230.286 400.06 228.188 410.601 226.09 421.142C226.09 421.142 226.061 421.053 225.734 421.087C225.17 421.888 224.934 422.655 224.697 423.422C224.697 423.422 224.571 423.5 224.194 423.431C222.873 424.241 221.928 425.121 220.751 426.164C220.463 426.688 220.407 427.049 220.35 427.411C220.35 427.411 220.23 427.339 219.993 427.322C219.541 427.613 219.324 427.923 219.108 428.232C219.108 428.232 219.094 428.119 218.752 428.115C209.438 432.066 200.096 431.289 190.736 430.265C190.736 430.265 190.862 430.216 190.781 429.912C189.424 429.082 188.148 428.556 186.871 428.029C186.544 428.045 186.281 427.923 185.915 427.174C185.433 426.473 185.118 426.262 184.802 426.05C184.476 426.036 184.228 425.891 183.996 425.057C183.514 424.044 183.093 423.587 182.671 423.13C182.671 423.13 182.822 423.11 182.869 422.773C181.95 417.608 179.876 412.697 180.238 407.972C181.093 396.806 183.193 385.74 184.609 374.61C185.231 369.725 185.411 364.784 185.792 359.868C185.792 359.868 185.871 359.448 185.859 358.881C184.327 357.508 182.893 356.3 181.276 355.959C163.66 352.246 146.027 348.608 128.364 345.129C126.035 344.67 123.509 345.211 121.075 345.289C121.075 345.289 121.043 345.099 120.861 345.184C120.487 345.591 120.295 345.913 120.104 346.235C120.104 346.235 120.088 346.061 119.856 346.207C119.521 346.996 119.418 347.639 119.315 348.283C119.315 348.283 119.284 348.141 119.004 348.254C118.647 348.992 118.57 349.618 118.493 350.244C118.493 350.244 118.456 350.304 118.103 350.362C117.54 351.337 117.329 352.253 117.119 353.169C117.119 353.169 117.093 353.058 116.794 353.178C116.132 354.618 115.769 355.939 115.405 357.259C115.405 357.259 115.457 357.142 115.091 357.274C114.519 358.323 114.314 359.241 114.108 360.159C114.108 360.159 114.083 360.054 113.783 360.174C113.109 361.622 112.734 362.949 112.359 364.276C112.359 364.276 112.368 364.146 112.055 364.261C111.642 365.01 111.541 365.645 111.441 366.28C111.441 366.28 111.454 366.321 111.113 366.356C110.642 367.026 110.512 367.662 110.382 368.299C110.382 368.299 110.208 368.136 109.951 368.255C108.826 370.629 107.958 372.884 107.089 375.14C107.089 375.14 107.065 375.048 106.777 375.161C104.695 379.57 102.902 383.865 101.109 388.161C101.109 388.161 101.085 388.054 100.792 388.169C99.8088 390.272 99.1186 392.26 98.4284 394.248C98.4284 394.248 98.4922 394.282 98.1206 394.355C97.5947 395.371 97.4404 396.314 97.2862 397.257C97.2862 397.257 97.3013 397.134 96.9637 397.223C96.2363 398.62 95.8467 399.926 95.457 401.233C95.457 401.233 95.5071 401.319 95.1562 401.359C94.7197 402.007 94.6342 402.616 94.5486 403.225C94.5486 403.225 94.5179 403.345 94.1324 403.386C92.8544 405.99 91.962 408.554 91.0695 411.117C91.0695 411.117 91.0479 411.038 90.7472 411.163C89.6504 413.56 88.8543 415.831 88.0581 418.103C88.0581 418.103 88.0309 418.03 87.7297 418.164C87.042 419.621 86.6556 420.943 86.2691 422.265C86.2691 422.265 86.2295 422.122 85.9603 422.24C85.5905 423 85.4898 423.641 85.3892 424.282C85.3892 424.282 85.1767 423.999 84.9392 424.184C83.2341 428.005 81.7664 431.64 80.2988 435.275C80.2988 435.275 80.2401 435.145 79.9493 435.257C79.1347 436.958 78.6109 438.547 78.0872 440.136C78.0872 440.136 78.0645 440.044 77.7692 440.164C76.7594 442.285 76.0449 444.287 75.3305 446.288C75.3305 446.288 75.2901 446.148 74.9969 446.27C74.5031 447.311 74.3025 448.231 74.1019 449.15C74.1019 449.15 74.0777 449.05 73.7768 449.17C73.086 450.616 72.6962 451.942 72.3063 453.267C72.3063 453.267 72.3122 453.147 71.9724 453.232C71.2197 454.634 70.807 455.951 70.3943 457.268C70.3943 457.268 70.4603 457.223 70.1165 457.299C69.6944 457.986 69.616 458.597 69.5376 459.208C69.5376 459.208 69.5377 459.362 69.1501 459.391C67.2121 463.335 65.6616 467.249 64.1112 471.163C64.1112 471.163 64.0813 471.051 63.8372 471.19C63.4376 471.946 63.2822 472.563 63.1267 473.181C63.1267 473.181 63.0992 473.065 62.8059 473.175C61.7942 475.281 61.0758 477.277 60.3575 479.272C60.3575 479.272 60.2944 479.128 59.9972 479.262C59.5059 480.32 59.3117 481.244 59.1175 482.168C59.1175 482.168 59.0929 482.059 58.7978 482.171C57.7912 484.285 57.0796 486.287 56.3679 488.288C56.3679 488.288 56.4237 488.178 56.0627 488.244C54.5647 490.314 53.4278 492.318 52.2909 494.322C52.2909 494.322 52.2076 494.199 51.9796 494.254C51.6562 494.666 51.5607 495.022 51.4652 495.378C51.4652 495.378 51.339 495.361 51.0682 495.359C50.6976 495.712 50.5977 496.066 50.4979 496.42C50.4979 496.42 50.4575 496.498 50.1186 496.431C49.4053 497.069 49.0308 497.774 48.6564 498.479C48.6564 498.479 48.5294 498.495 48.1558 498.429C47.6684 498.72 47.5546 499.076 47.4408 499.432C47.4408 499.432 47.4358 499.098 47.0712 499.217C45.6201 500.384 44.5336 501.432 43.4471 502.479C43.4471 502.479 43.3574 502.467 43.0575 502.387C42.517 502.578 42.2763 502.848 42.0356 503.118C42.0356 503.118 42.0353 503.038 41.6502 503.032C34.6343 504.116 28.0197 506.506 21.3454 503.093C20.6901 502.758 19.7057 503.067 18.874 503.077C18.874 503.077 18.9552 503.055 18.8587 502.78C18.0458 502.211 17.3295 501.916 16.6132 501.621C16.6132 501.621 16.5569 501.518 16.5756 501.168C16.0301 500.552 15.4659 500.288 14.9018 500.023C14.5384 500.005 14.2666 499.839 14.0052 498.959C13.5105 497.976 13.0968 497.557 12.6831 497.138C12.6831 497.138 12.827 497.117 12.8562 496.819C12.109 495.438 11.3327 494.356 10.5563 493.273C10.5563 493.273 10.5954 493.188 10.7378 492.8C10.64 485.624 9.86121 478.797 10.3347 472.058C10.6952 466.927 12.6457 461.908 13.8887 456.839C13.8887 456.839 13.9126 456.942 14.2126 456.826C15.2104 454.404 15.9082 452.1 16.606 449.796C16.606 449.796 16.5413 449.732 16.9094 449.666C18.7127 445.329 20.148 441.058 21.5832 436.788C21.5832 436.788 21.5503 436.727 21.9082 436.655C23.3903 432.97 24.5145 429.358 25.6387 425.745C25.6387 425.745 25.5834 425.828 25.9385 425.72C28.3999 419.328 30.5063 413.044 32.6127 406.76C32.6127 406.76 32.5554 406.758 32.922 406.681C34.08 403.985 34.8712 401.366 35.6624 398.748C35.6624 398.748 35.6517 398.874 35.9778 398.729C36.5233 397.365 36.7426 396.145 36.962 394.925C36.962 394.925 36.998 394.982 37.297 394.843C38.7408 391.472 39.8857 388.24 41.3026 384.776C46.244 371.281 51.0366 358.059 55.5332 344.736C57.9548 337.561 59.8692 330.215 62.3009 322.721C62.6861 321.275 62.7828 320.054 62.8795 318.832C62.8795 318.832 62.9085 318.949 63.1756 318.796C66.159 311.364 68.9845 304.122 71.5375 296.786C72.5472 293.884 72.9507 290.772 73.6301 287.756C73.6301 287.756 73.5645 287.789 73.9222 287.704C74.9039 285.091 75.5278 282.561 76.1516 280.031C76.0024 279.721 76.0282 279.427 76.7915 278.938C78.1313 277.335 79.1353 276.021 79.6507 274.537C84.1347 261.628 88.5798 248.706 92.912 235.746C93.772 233.173 94.0989 230.422 94.6715 227.753C94.6715 227.753 94.6313 227.852 94.9707 227.734C96.548 223.407 97.7859 219.199 99.0238 214.99C99.212 213.873 99.4001 212.757 99.6795 211.098C89.1541 212.835 79.6553 215.043 73.0992 224.906C61.8904 241.768 49.5044 257.846 38.2131 274.657C33.7077 281.364 27.7365 282.046 21.2797 280.838C14.8864 279.643 8.88682 276.848 4.9372 270.37C4.4603 269.196 4.01049 268.72 3.56068 268.245C3.56068 268.245 3.63966 268.152 3.73577 267.8C3.4477 261.898 3.06353 256.348 2.67934 250.797C2.67934 250.797 2.57505 250.789 2.9203 250.708C4.47517 248.362 5.68481 246.099 6.89445 243.835C6.89445 243.835 6.91818 243.94 7.18865 243.845C7.76157 243.027 8.064 242.305 8.36646 241.583C8.36646 241.583 8.4736 241.548 8.83238 241.571C9.64942 240.606 10.1077 239.617 10.5659 238.628C10.5659 238.628 10.5242 238.584 10.8905 238.614C11.6998 237.657 12.1427 236.671 12.5857 235.685C12.5857 235.685 12.658 235.974 12.941 235.808C13.4534 235.048 13.6827 234.453 13.9121 233.858C13.9121 233.858 13.9406 233.947 14.2624 233.915C14.8352 233.137 15.0862 232.391 15.3371 231.644C15.3371 231.644 15.4441 231.592 15.8159 231.592C16.4133 230.997 16.639 230.402 16.8647 229.808C16.8647 229.808 16.8968 229.924 17.1743 229.831C17.9352 228.773 18.4186 227.809 18.9019 226.845C18.9019 226.845 18.9324 226.943 19.15 226.836C19.5207 226.387 19.6738 226.046 19.8269 225.705C19.8269 225.705 19.8507 225.891 20.0771 225.783C20.5192 225.085 20.735 224.496 20.9508 223.906C20.9508 223.906 20.9807 223.976 21.1967 223.861C21.5708 223.419 21.729 223.092 21.8872 222.766C21.8872 222.766 21.9069 222.919 22.1148 222.814C22.4534 222.352 22.5841 221.995 22.7149 221.638C22.7149 221.638 22.7239 221.823 22.9832 221.736C23.4618 221.047 23.6811 220.446 23.9003 219.844C23.9003 219.844 23.9306 219.942 24.1479 219.837C24.5291 219.398 24.6929 219.063 24.8568 218.727C24.8568 218.727 24.8736 218.912 25.0981 218.795C25.5293 218.084 25.7359 217.49 25.9425 216.895C25.9425 216.895 25.9687 216.969 26.1843 216.856C26.5648 216.419 26.7298 216.095 26.8948 215.771C26.8948 215.771 26.9067 215.925 27.1139 215.818C27.4229 215.355 27.5248 214.999 27.6267 214.642C27.6267 214.642 27.5551 214.727 27.8805 214.678C28.4446 214.043 28.6832 213.456 28.9219 212.869C28.9219 212.869 28.9495 212.956 29.2723 212.921C30.04 211.884 30.4849 210.883 30.9298 209.881C30.9298 209.881 30.9653 209.963 31.2854 209.928C32.0555 208.9 32.5056 207.908 32.9557 206.916C32.9557 206.916 32.9856 206.983 33.1963 206.865C33.5797 206.434 33.7523 206.122 33.9249 205.809C33.9249 205.809 33.9375 205.945 34.1445 205.832C34.4977 205.371 34.644 205.023 34.7903 204.674C34.7903 204.674 34.8125 204.869 35.0456 204.767C35.4965 204.071 35.7145 203.477 35.9324 202.883C35.9324 202.883 35.9551 202.96 36.1744 202.85C36.5534 202.41 36.7133 202.079 36.8731 201.748C36.8731 201.748 36.8916 201.922 37.1144 201.802C37.5426 201.092 37.7481 200.502 37.9537 199.911C37.9537 199.911 37.9848 199.979 38.1989 199.868C38.5837 199.444 38.7545 199.13 38.9253 198.816C38.9253 198.816 38.9399 198.947 39.2288 198.843C40.3005 197.431 41.0835 196.122 41.8665 194.813C41.8665 194.813 41.904 194.923 42.1222 194.82C42.4571 194.364 42.5739 194.01 42.6907 193.657C42.6907 193.657 42.6387 193.78 42.9709 193.732C44.4765 191.714 45.65 189.743 46.8235 187.773C46.8235 187.773 46.8611 187.893 47.1336 187.821C47.78 187.028 48.1537 186.307 48.5274 185.586C48.5997 185.743 48.6721 185.9 48.9723 185.84C49.4328 185.028 49.6655 184.435 49.8981 183.841C49.8981 183.841 49.9291 183.939 50.1455 183.843C50.5442 183.426 50.7264 183.106 50.9087 182.785C50.9087 182.785 50.9032 182.91 51.202 182.895C52.6246 181.52 53.7483 180.159 54.872 178.798C54.872 178.798 54.9161 178.91 55.1244 178.834C55.5416 178.462 55.7504 178.166 55.9593 177.87C55.9593 177.87 55.9574 177.952 56.2625 177.941C57.351 177.215 58.1344 176.502 58.9179 175.788C58.9179 175.788 58.9293 175.902 59.2221 175.909C60.3219 175.215 61.1289 174.515 61.936 173.815C61.936 173.815 61.9417 173.921 62.223 173.918C62.9795 173.534 63.4547 173.152 63.9299 172.77C63.9299 172.77 63.9333 172.899 64.2088 172.904C64.9608 172.521 65.4372 172.133 65.9137 171.745C65.9137 171.745 65.9282 171.875 66.2449 171.906C67.2434 171.448 67.9252 170.958 68.6071 170.468C68.6071 170.468 68.7395 170.49 69.1667 170.678C70.2482 170.802 70.9262 170.83 71.5536 170.665C96.9803 163.975 122.392 157.226 147.839 150.616C151.122 149.763 154.589 149.615 157.971 149.141C165.23 152.069 173.197 153.934 179.578 158.181C188.619 164.196 196.491 171.968 205.059 179.592C205.57 180.45 205.882 180.705 206.195 180.96C206.195 180.96 206.031 180.943 206.142 181.138C206.572 181.534 206.891 181.735 207.21 181.936C207.21 181.936 207.053 181.952 207.151 182.146C207.566 182.541 207.882 182.742 208.199 182.942C208.199 182.942 208.047 182.956 208.147 183.15C208.561 183.546 208.875 183.747 209.189 183.948C209.189 183.948 209.042 183.96 209.146 184.155C209.567 184.547 209.884 184.744 210.201 184.94C210.201 184.94 210.048 184.954 210.15 185.149C210.569 185.542 210.886 185.741 211.203 185.94C211.203 185.94 211.051 185.955 211.146 186.147C211.546 186.548 211.85 186.756 212.154 186.964C212.154 186.964 212.029 186.973 212.134 187.17C212.543 187.566 212.848 187.765 213.152 187.964C213.152 187.964 213.028 187.972 213.133 188.17C213.542 188.567 213.847 188.766 214.151 188.964C214.151 188.964 214.029 188.973 214.132 189.171C214.539 189.567 214.843 189.766 215.146 189.964C215.146 189.964 215.027 189.975 215.135 190.169C215.539 190.567 215.834 190.771 216.129 190.975C216.129 190.975 216.02 190.981 216.134 191.183C216.559 191.578 216.871 191.772 217.182 191.965C218.395 193.072 219.608 194.179 220.946 195.916C221.527 196.91 221.983 197.273 222.44 197.636C222.44 197.636 222.49 197.555 222.403 197.826C222.541 198.392 222.766 198.686 223.125 199.276C223.988 199.906 224.716 200.24 225.444 200.575C225.444 200.575 225.417 200.691 225.381 200.955C225.694 201.375 226.044 201.533 226.394 201.69C226.394 201.69 226.257 201.76 226.293 201.996C226.679 202.391 227.029 202.55 227.38 202.709C227.38 202.709 227.14 202.687 227.16 203.04C228.546 204.517 229.913 205.641 231.279 206.766C231.279 206.766 231.166 206.837 231.234 207.063C231.652 207.436 232.002 207.583 232.352 207.729C232.352 207.729 232.203 207.768 232.267 208.004C232.692 208.342 233.053 208.444 233.414 208.545C233.414 208.545 233.289 208.463 233.337 208.823C233.959 209.433 234.533 209.684 235.106 209.935C235.106 209.935 235.032 209.968 235.137 210.177C235.542 210.573 235.84 210.76 236.139 210.946C236.139 210.946 236.041 210.959 236.147 211.166C236.554 211.568 236.856 211.762 237.158 211.957C237.474 211.982 237.725 212.122 238.08 212.856C238.565 213.526 238.881 213.719 239.197 213.913C239.197 213.913 239.071 213.926 239.166 214.134C239.574 214.53 239.888 214.718 240.202 214.906C240.202 214.906 240.075 214.925 240.168 215.131C240.573 215.527 240.886 215.716 241.2 215.905C241.2 215.905 241.094 215.903 241.112 216.217C241.857 216.928 242.585 217.325 243.313 217.723C243.313 217.723 243.186 217.854 243.334 218.135C245.736 218.413 248.063 218.78 250.232 218.351C269.962 214.448 288.783 206.329 309.212 205.647C309.212 205.647 309.238 205.521 309.314 205.879C310.687 206.724 311.984 207.212 313.281 207.7C313.281 207.7 313.126 207.772 313.224 208.005C313.675 208.308 314.028 208.377 314.381 208.445C314.381 208.445 314.5 208.498 314.442 208.857C315.08 209.611 315.776 210.005 316.472 210.4C316.472 210.4 316.473 210.506 316.418 210.859C316.69 211.402 317.016 211.591 317.342 211.781C317.342 211.781 317.198 211.863 317.231 212.07C317.565 212.499 317.866 212.721 318.166 212.943C318.166 212.943 318.068 212.943 318.074 213.228C318.46 213.986 318.84 214.46 319.221 214.934C319.221 214.934 319.1 214.943 319.069 215.317C319.382 222.834 319.725 229.975 320.069 237.117C320.069 237.117 320.045 237.04 319.825 237.161C319.491 237.635 319.378 237.987 319.265 238.34C319.265 238.34 319.254 238.157 319 238.252C318.529 238.948 318.311 239.549 318.094 240.15C318.094 240.15 318.065 240.056 317.851 240.154C317.449 240.564 317.26 240.876 317.072 241.188C317.072 241.188 317.079 241.073 316.771 241.096C316.005 241.839 315.547 242.56 315.089 243.28C315.079 243.605 314.927 243.837 314.106 244.018C313.061 244.595 312.542 245.13 312.024 245.665C312.024 245.665 311.66 245.977 311.09 246.017C310.025 246.423 309.53 246.789 309.034 247.154C309.034 247.154 309.039 247.057 308.67 247.044C300.253 249.045 292.204 251.047 284.177 253.134C283.987 253.183 284.042 254.174 283.983 254.726C275.904 256.789 267.825 258.851 259.107 260.632C256.32 260.954 254.173 261.556 252.026 262.159C252.026 262.159 252.029 262.057 251.731 262.041C250.623 262.331 249.813 262.638 249.003 262.944C249.003 262.944 248.595 263.045 247.931 263.029C241.261 262.745 235.255 262.472 229.248 262.216C228.097 262.167 226.943 262.182 225.791 262.168C225.791 262.168 225.928 262.139 225.795 261.891C225.038 261.482 224.413 261.322 223.789 261.162C223.789 261.162 223.907 261.122 223.807 260.904C223.353 260.588 222.999 260.49 222.645 260.393C222.645 260.393 222.679 260.48 222.646 260.139C222.015 259.576 221.415 259.353 220.815 259.13C220.815 259.13 220.925 259.1 220.838 258.83C220.027 258.177 219.303 257.795 218.578 257.412C218.578 257.412 218.719 257.285 218.681 257.037C218.068 256.539 217.494 256.29 216.92 256.04C216.92 256.04 216.986 256.011 216.872 255.803C216.46 255.411 216.162 255.228 215.863 255.045C215.863 255.045 215.95 255.045 215.925 254.738C215.205 253.995 214.51 253.558 213.816 253.121C213.816 253.121 213.925 253.085 213.827 252.87C213.4 252.48 213.069 252.306 212.739 252.131C212.739 252.131 212.897 252.097 212.81 251.889C212.396 251.476 212.069 251.27 211.742 251.065C207.311 247.353 202.906 243.61 198.441 239.94C195.392 237.433 192.258 235.028 188.06 231.704C185.152 236.848 181.714 241.064 180.237 245.882C175.157 262.46 170.762 279.249 165.731 297.302C180.99 300.221 196.11 303.113 211.704 306.47C216.207 308.154 220.235 309.372 224.263 310.59C224.263 310.59 224.324 310.619 224.352 310.951C226.283 312.172 228.187 313.061 230.092 313.95C230.092 313.95 230.023 313.982 230.13 314.195C230.547 314.585 230.856 314.761 231.165 314.938C231.165 314.938 231.048 314.951 231.151 315.158C231.575 315.545 231.895 315.725 232.216 315.905C232.216 315.905 232.071 315.919 232.169 316.128C232.607 316.505 232.946 316.672 233.285 316.839C233.285 316.839 233.124 316.868 233.205 317.083C233.63 317.469 233.974 317.64 234.318 317.811C234.318 317.811 234.164 317.865 234.22 318.074C234.585 318.495 234.895 318.708 235.205 318.921C235.205 318.921 235.091 318.924 235.089 319.236C236.215 320.904 237.344 322.262 238.473 323.619C238.473 323.619 238.454 323.687 238.295 324.109C241.863 333.792 240.711 343.182 239.032 352.635C237.883 359.102 237.049 365.624 236.074 372.121C236.074 372.121 236.051 372.023 235.78 372.247C235.358 374.035 235.205 375.6 235.053 377.164Z" fill="#1478C3"/>
<path d="M334.938 89.7921C334.953 89.4717 335.097 89.2271 335.847 88.9045C336.529 88.4439 336.732 88.1371 336.935 87.8303C336.935 87.8303 336.935 87.9276 337.232 87.912C338.008 87.2429 338.488 86.5896 338.968 85.9363C338.968 85.9363 338.993 85.999 339.313 85.9631C340.278 85.1336 340.923 84.3399 341.568 83.5462C341.568 83.5462 341.795 83.5565 342 83.5997C342.338 83.2865 342.471 82.9302 342.605 82.5739C342.605 82.5739 342.884 82.6894 343.048 82.6715C343.383 82.3089 343.553 81.964 343.723 81.6192C343.723 81.6192 343.789 81.7688 344.016 81.7226C344.407 81.3291 344.573 80.9818 344.738 80.6345C344.738 80.6345 344.795 80.7853 345.022 80.7329C345.417 80.3354 345.586 79.9903 345.755 79.6452C345.755 79.6452 345.812 79.7936 346.033 79.7445C346.448 79.3686 346.643 79.0417 346.838 78.715C346.838 78.715 346.876 78.8611 347.085 78.7927C347.498 78.4138 347.702 78.1032 347.906 77.7927C347.906 77.7927 347.928 77.9216 348.131 77.8312C348.532 77.4373 348.732 77.1337 348.931 76.8301C348.931 76.8301 348.944 76.9458 349.149 76.8442C349.542 76.4325 349.73 76.1222 349.918 75.812C349.918 75.812 349.934 75.9346 350.14 75.8366C350.531 75.4225 350.716 75.1064 350.9 74.7903C350.9 74.7903 350.933 74.9228 351.136 74.8326C351.532 74.426 351.724 74.1096 351.916 73.7933C351.916 73.7933 351.935 73.9331 352.136 73.8366C352.53 73.4229 352.721 73.1057 352.913 72.7885C352.913 72.7885 352.93 72.9297 353.132 72.8377C353.532 72.4326 353.729 72.1196 353.926 71.8066C353.926 71.8066 353.943 71.9399 354.144 71.8427C354.539 71.4333 354.733 71.1211 354.927 70.8089C354.927 70.8089 354.947 70.9429 355.149 70.8383C355.546 70.4142 355.741 70.0947 355.936 69.7752C355.94 69.4512 356.083 69.2082 356.843 68.8969C357.529 68.4401 357.735 68.1325 357.941 67.825C357.941 67.825 357.95 67.9508 358.15 67.8498C358.548 67.4452 358.745 67.1415 358.943 66.8378C358.943 66.8378 358.955 66.9546 359.156 66.8518C359.552 66.4453 359.748 66.1417 359.943 65.8381C359.943 65.8381 359.954 65.9545 360.156 65.8521C360.552 65.4467 360.748 65.1435 360.943 64.8404C360.943 64.8404 360.955 64.955 361.157 64.8524C361.554 64.4468 361.749 64.1438 361.944 63.8408C361.944 63.8408 361.958 63.9575 362.162 63.8448C362.558 63.4143 362.75 63.0963 362.942 62.7784C363.387 62.2258 363.832 61.6732 364.828 60.9198C365.644 60.3946 365.91 60.0701 366.175 59.7456C370.025 55.4088 373.875 51.0719 378.284 46.1051C373.366 42.4411 367.46 38.0697 361.586 33.6561C356.678 29.9686 351.609 26.461 346.977 22.4511C342.516 18.5891 343.28 16 348.954 14.2813C350.686 13.7569 352.495 13.4894 354.893 13.3801C356.653 13.3487 357.79 13.0415 358.927 12.7343C358.927 12.7343 358.946 12.873 359.339 12.9174C368.207 11.9641 376.683 10.9663 385.66 9.90942C384.74 9.00996 384.389 8.66634 384.037 8.32274C400.086 5.87889 416.134 3.43503 432.878 1.31956C440.083 1.4113 446.593 1.17465 453.103 0.937988C453.103 0.937988 453.029 0.967026 453.131 1.18152C453.536 1.57912 453.84 1.76224 454.144 1.94534C454.144 1.94534 454.058 1.95602 454.036 2.36172C454.038 4.55627 454.061 6.34512 454.084 8.13397C454.084 8.13397 454.063 8.02402 453.813 8.20999C453.665 9.92246 453.766 11.4489 453.866 12.9754C451.581 26.3782 449.296 39.781 446.607 53.4729C445.298 57.841 444.282 61.8991 443.508 66.0027C440.985 79.3701 438.551 92.7542 436.082 106.132C436.082 106.132 436.038 106.042 435.676 106.028C433.474 105.697 431.633 105.379 429.792 105.062C429.454 105.04 429.211 104.878 428.998 103.986C427.896 102.301 426.858 101.205 425.82 100.108C425.82 100.108 425.926 100.065 425.824 99.8284C425.39 99.343 425.057 99.0941 424.725 98.8453C418.757 91.2796 412.79 83.714 406.715 76.0119C405.548 77.0436 404.577 77.9029 403.188 78.7324C402.632 78.6999 402.494 78.6971 402.357 78.6944C402.481 78.9305 402.605 79.1667 402.729 79.4029C402.729 79.4029 402.583 79.4578 402.194 79.4061C401.714 79.7048 401.624 80.0552 401.534 80.4056C401.534 80.4056 401.44 80.4117 401.125 80.3877C400.733 80.707 400.656 81.0503 400.578 81.3935C400.578 81.3935 400.472 81.4406 400.136 81.4064C399.729 81.7136 399.657 82.055 399.585 82.3964C399.585 82.3964 399.52 82.5122 399.178 82.4714C398.581 82.9952 398.327 83.5597 398.072 84.1242C398.072 84.1242 398.05 84.0421 397.84 84.1425C397.433 84.5394 397.237 84.836 397.041 85.1326C397.041 85.1326 397.033 85.0321 396.83 85.137C396.433 85.5392 396.238 85.8365 396.044 86.1338C396.044 86.1338 396.034 86.0342 395.831 86.1409C395.435 86.5461 395.241 86.8445 395.048 87.143C395.048 87.143 395.038 87.0371 394.832 87.145C394.432 87.5596 394.238 87.8664 394.043 88.1732C393.599 88.7388 393.154 89.3045 392.187 90.0631C391.458 90.5621 391.252 90.8683 391.046 91.1745C389.595 92.7121 388.144 94.2498 386.061 95.9369C384.961 96.7398 384.493 97.3932 384.024 98.0467C384.024 98.0467 384.004 97.9973 383.698 98.037C383.037 98.5337 382.682 98.9905 382.326 99.4474C382.326 99.4474 382.235 99.303 382.006 99.3213C381.632 99.6945 381.486 100.049 381.34 100.404C381.34 100.404 381.271 100.274 381.026 100.307C380.65 100.698 380.519 101.055 380.388 101.412C380.388 101.412 380.092 101.217 379.939 101.282C379.641 101.701 379.496 102.055 379.352 102.409C379.352 102.409 379.247 102.284 379.013 102.311C378.624 102.688 378.469 103.038 378.314 103.388C378.314 103.388 378.243 103.259 378.005 103.295C377.615 103.683 377.465 104.034 377.314 104.386C377.314 104.386 377.24 104.262 377.002 104.295C376.597 104.674 376.431 105.02 376.265 105.366C376.265 105.366 376.209 105.214 375.98 105.269C375.605 105.678 375.46 106.032 375.314 106.387C375.314 106.387 375.244 106.257 375.006 106.292C374.599 106.675 374.431 107.022 374.263 107.369C374.263 107.369 374.197 107.223 373.974 107.267C373.559 107.64 373.367 107.971 373.175 108.301C373.175 108.301 373.136 108.145 372.925 108.218C372.531 108.623 372.348 108.954 372.165 109.285C372.165 109.285 372.133 109.132 371.92 109.21C371.527 109.62 371.347 109.952 371.167 110.284C371.167 110.284 371.133 110.134 370.92 110.211C370.527 110.619 370.348 110.95 370.168 111.28C370.168 111.28 370.134 111.135 369.919 111.213C369.528 111.625 369.354 111.958 369.179 112.292C369.179 112.292 369.142 112.144 368.927 112.218C368.533 112.624 368.354 112.957 368.175 113.29C368.175 113.29 368.139 113.141 367.924 113.216C367.532 113.624 367.354 113.956 367.176 114.288C367.176 114.288 367.14 114.14 366.924 114.218C366.537 114.634 366.367 114.972 366.196 115.311C366.196 115.311 366.156 115.157 365.938 115.228C365.546 115.636 365.37 115.974 365.195 116.312C365.195 116.312 365.156 116.155 364.939 116.229C364.557 116.646 364.391 116.989 364.226 117.333C364.226 117.333 364.181 117.18 363.958 117.245C363.569 117.653 363.402 117.997 363.235 118.341C363.235 118.341 363.186 118.189 362.962 118.25C362.572 118.655 362.405 118.999 362.238 119.344C362.238 119.344 362.188 119.192 361.964 119.252C361.573 119.657 361.407 120.001 361.24 120.346C361.24 120.346 361.19 120.194 360.965 120.253C360.574 120.657 360.408 121.002 360.241 121.347C360.241 121.347 360.189 121.196 359.966 121.253C359.568 121.649 359.393 121.989 359.218 122.329C359.218 122.329 359.171 122.177 358.95 122.242C358.559 122.648 358.389 122.99 358.218 123.331C358.218 123.331 358.171 123.177 357.952 123.242C357.56 123.649 357.388 123.99 357.216 124.331C357.216 124.331 357.17 124.175 356.952 124.24C356.556 124.642 356.378 124.98 356.2 125.318C356.2 125.318 356.169 125.16 355.909 125.215C355.174 125.958 354.699 126.645 354.224 127.333C354.224 127.333 354.17 127.183 353.95 127.244C353.558 127.645 353.387 127.986 353.216 128.327C353.216 128.327 353.17 128.175 352.95 128.239C352.551 128.639 352.373 128.975 352.195 129.312C352.195 129.312 352.153 129.159 351.937 129.228C351.541 129.632 351.361 129.967 351.182 130.302C351.182 130.302 351.143 130.148 350.929 130.22C350.533 130.626 350.352 130.958 350.17 131.291C350.17 131.291 350.17 131.162 349.851 131.148C348.751 132.168 347.969 133.203 347.188 134.238C347.188 134.238 347.132 134.128 346.909 134.211C346.537 134.64 346.388 134.986 346.239 135.333C346.239 135.333 346.196 135.185 345.969 135.249C345.573 135.657 345.406 136.001 345.239 136.345C345.239 136.345 345.189 136.193 344.965 136.253C344.574 136.657 344.407 137.001 344.239 137.346C344.239 137.346 344.19 137.193 343.966 137.254C343.579 137.661 343.416 138.007 343.253 138.354C343.253 138.354 343.199 138.205 342.972 138.261C342.578 138.662 342.411 139.007 342.243 139.352C342.243 139.352 342.191 139.198 341.968 139.255C341.573 139.654 341.4 139.997 341.227 140.339C341.227 140.339 341.19 140.183 340.927 140.231C340.182 140.963 339.7 141.648 339.218 142.333C339.218 142.333 339.166 142.178 338.948 142.241C338.558 142.644 338.385 142.985 338.213 143.326C338.213 143.326 338.169 143.172 337.949 143.238C337.558 143.645 337.386 143.985 337.214 144.326C337.214 144.326 337.168 144.174 336.949 144.238C336.551 144.638 336.372 144.975 336.194 145.312C336.194 145.312 336.152 145.159 335.937 145.226C335.535 145.621 335.348 145.95 335.161 146.279C335.161 146.279 335.127 146.131 334.914 146.209C334.522 146.617 334.342 146.947 334.161 147.276C334.161 147.276 334.127 147.131 333.914 147.208C333.516 147.612 333.332 147.939 333.147 148.267C333.147 148.267 333.113 148.122 332.906 148.198C332.498 148.586 332.299 148.899 332.099 149.211C332.099 149.211 332.078 149.081 331.872 149.172C331.475 149.574 331.283 149.886 331.091 150.198C331.091 150.198 331.074 150.075 330.87 150.159C330.458 150.532 330.249 150.822 330.04 151.112C330.04 151.112 330.035 151.031 329.711 151.056C328.055 152.21 326.723 153.339 325.39 154.468C325.39 154.468 325.345 154.434 324.981 154.314C324.134 154.581 323.651 154.968 323.167 155.356C323.167 155.356 323.096 155.246 322.685 155.159C318.802 155.081 315.33 155.09 311.858 155.099C311.858 155.099 311.951 155.071 311.813 154.832C311.081 154.416 310.488 154.24 309.894 154.065C309.894 154.065 309.972 154.02 309.93 153.701C309.129 153.082 308.369 152.782 307.61 152.482C307.61 152.482 307.667 152.483 307.66 152.148C307.305 151.748 306.956 151.683 306.607 151.619C306.607 151.619 306.517 151.509 306.559 151.166C306.257 150.742 305.913 150.662 305.568 150.582C305.568 150.582 305.558 150.479 305.586 150.147C305.264 149.712 304.913 149.61 304.562 149.508C304.562 149.508 304.554 149.415 304.6 149.087C303.973 148.267 303.299 147.774 302.625 147.281C302.625 147.281 302.846 147.23 302.829 146.932C302.167 146.112 301.523 145.59 300.879 145.069C300.879 145.069 300.968 145.032 300.968 144.679C298.444 138.034 296.971 131.631 298.912 124.868C298.912 124.868 298.956 124.959 299.261 124.925C299.987 124.184 300.407 123.475 300.827 122.767C300.827 122.767 300.881 122.88 301.182 122.873C301.942 122.178 302.402 121.49 302.862 120.802C302.862 120.802 302.905 120.904 303.121 120.821C303.525 120.423 303.714 120.109 303.903 119.794C303.903 119.794 303.922 119.922 304.13 119.83C304.525 119.424 304.714 119.11 304.903 118.795C304.903 118.795 304.928 118.923 305.136 118.826C305.541 118.409 305.737 118.089 305.933 117.77C306.71 116.899 307.487 116.028 308.8 114.959C309.543 114.466 309.751 114.171 309.958 113.875C309.958 113.875 309.964 113.965 310.171 113.861C310.568 113.459 310.758 113.162 310.948 112.865C310.948 112.865 310.958 112.958 311.165 112.857C311.564 112.458 311.756 112.16 311.948 111.863C311.948 111.863 311.958 111.958 312.162 111.86C312.566 111.474 312.765 111.186 312.964 110.898C312.964 110.898 312.973 110.977 313.271 110.945C313.934 110.455 314.298 109.997 314.663 109.54C314.663 109.54 314.758 109.682 314.987 109.669C315.359 109.299 315.502 108.943 315.646 108.587C315.646 108.587 315.738 108.715 315.977 108.686C316.365 108.302 316.514 107.948 316.662 107.594C316.662 107.594 316.743 107.716 316.983 107.689C317.389 107.315 317.553 106.966 317.718 106.618C317.718 106.618 317.782 106.767 318.01 106.721C318.402 106.325 318.565 105.976 318.728 105.628C318.728 105.628 318.786 105.78 319.015 105.727C319.402 105.325 319.56 104.974 319.719 104.624C319.719 104.624 319.781 104.77 320.011 104.723C320.411 104.33 320.581 103.984 320.751 103.638C320.751 103.638 320.805 103.797 321.028 103.739C321.417 103.335 321.584 102.988 321.75 102.641C321.75 102.641 321.805 102.794 322.027 102.742C322.434 102.354 322.619 102.019 322.803 101.684C322.803 101.684 322.847 101.837 323.062 101.769C323.459 101.369 323.641 101.036 323.824 100.703C323.824 100.703 323.861 100.857 324.074 100.781C324.467 100.373 324.648 100.04 324.828 99.7068C324.828 99.7068 324.865 99.8597 325.077 99.7853C325.476 99.3828 325.663 99.0547 325.851 98.7266C325.851 98.7266 325.879 98.8796 326.135 98.809C327.228 97.7534 328.064 96.7684 328.901 95.7833C328.901 95.7833 328.924 95.9176 329.128 95.8264C329.523 95.421 329.714 95.1069 329.905 94.7928C329.905 94.7928 329.925 94.9239 330.129 94.8307C330.526 94.4255 330.718 94.1135 330.91 93.8015C330.91 93.8015 330.927 93.9279 331.133 93.8342C331.529 93.4274 331.718 93.1141 331.907 92.8009C331.907 92.8009 331.926 92.925 332.132 92.834C332.533 92.4348 332.726 92.1264 332.919 91.8181C332.919 91.8181 332.937 91.9344 333.143 91.8392C333.542 91.4385 333.735 91.1329 333.928 90.8274C333.928 90.8274 333.946 90.9447 334.152 90.8395C334.552 90.4203 334.745 90.1062 334.938 89.7921Z" fill="#1478C3"/>
<path d="M164.898 31.6007C165.004 31.2732 165.229 31.0888 166.044 31.3395C167.464 31.5433 168.448 31.5943 169.349 31.3455C179.879 28.4381 190.438 27.6239 201.04 30.8993C205.1 32.1537 209.113 33.5615 213.148 34.8993C213.148 34.8993 213.058 34.9281 213.174 35.1431C213.641 35.4192 213.991 35.4804 214.341 35.5415C214.341 35.5415 214.414 35.5229 214.392 35.8902C215.6 36.8329 216.831 37.4084 218.061 37.9839C218.399 37.9674 218.678 38.0883 218.995 38.9238C220.432 40.3123 221.773 41.1232 223.113 41.9342C223.113 41.9342 223.029 41.9744 223.034 42.1818C223.383 42.5465 223.726 42.7038 224.069 42.861C226.655 46.0157 229.241 49.1704 231.651 52.8463C232.13 54.1361 232.786 54.9048 233.441 55.6735C233.441 55.6735 233.432 55.7398 233.282 56.0993C233.824 57.6135 234.516 58.7681 235.209 59.9228C235.209 59.9228 235.103 59.9391 235.074 60.2923C235.781 62.7415 236.516 64.8375 237.252 66.9335C237.252 66.9335 237.117 66.9448 237.082 67.3379C237.365 71.8387 238.083 75.9631 237.912 80.0505C237.604 87.4432 236.765 94.8138 236.148 102.194C236.148 102.194 236.118 102.066 235.855 102.212C234.431 105.291 233.271 108.225 232.111 111.158C232.111 111.158 232.081 111.064 231.861 111.177C231.567 111.646 231.493 112.001 231.419 112.357C231.419 112.357 231.488 112.326 231.145 112.354C230.567 112.97 230.331 113.558 230.095 114.146C230.095 114.146 230.067 114.058 229.848 114.164C229.474 114.606 229.32 114.942 229.165 115.277C229.165 115.277 229.14 115.122 228.923 115.212C228.56 115.654 228.414 116.007 228.268 116.359C228.268 116.359 228.229 116.201 227.996 116.265C227.654 116.689 227.546 117.051 227.438 117.413C227.438 117.413 227.476 117.194 227.143 117.29C226.577 117.978 226.344 118.569 226.111 119.16C226.111 119.16 226.079 119.069 225.862 119.16C225.455 119.56 225.266 119.87 225.076 120.18C225.076 120.18 225.06 120.061 224.854 120.157C224.457 120.562 224.266 120.871 224.076 121.18C224.076 121.18 224.06 121.06 223.854 121.156C223.457 121.561 223.265 121.87 223.073 122.179C223.073 122.179 223.072 122.078 222.77 122.093C222.01 122.789 221.552 123.47 221.095 124.151C221.095 124.151 221.053 124.054 220.761 124.07C220.07 124.533 219.67 124.982 219.271 125.43C219.271 125.43 219.189 125.263 218.916 125.279C217.807 126.263 216.971 127.231 216.135 128.199C216.135 128.199 216.073 128.094 215.751 128.072C214.652 128.757 213.876 129.462 213.1 130.167C213.1 130.167 213.06 130.072 212.728 130.058C210.687 131.167 208.979 132.29 207.271 133.413C207.271 133.413 207.142 133.362 206.805 133.239C204.422 133.693 202.39 134.337 200.324 134.836C193.499 136.486 186.829 138.923 179.522 137.196C176.499 136.482 173.197 136.954 170.022 136.887C158.246 133.227 148.881 126.129 141.263 116.215C141.106 115.614 140.865 115.459 140.624 115.303C140.624 115.303 140.722 115.189 140.717 114.966C140.406 114.524 140.101 114.305 139.795 114.086C139.795 114.086 139.903 114.08 139.903 113.787C139.458 113.089 139.011 112.683 138.564 112.277C138.564 112.277 138.697 112.18 138.704 111.969C138.424 111.524 138.137 111.289 137.851 111.055C137.851 111.055 137.936 111.053 137.947 110.714C137.138 109.044 136.317 107.713 135.496 106.382C135.496 106.382 135.525 106.326 135.684 105.904C135.659 104.53 135.56 103.553 135.281 102.63C132.568 93.6674 129.75 84.7674 131.905 75.1544C133.036 70.1104 133.625 64.9446 134.458 59.8338C134.458 59.8338 134.343 59.5999 134.738 59.5709C135.214 58.9438 135.294 58.3457 135.374 57.7476C135.374 57.7476 135.387 57.5763 135.772 57.5653C136.281 56.9318 136.405 56.3093 136.529 55.6868C136.529 55.6868 136.691 55.6241 136.99 55.6381C137.826 54.3872 138.364 53.1223 138.901 51.8574C138.901 51.8574 138.927 51.9427 139.201 51.8489C139.872 51.0359 140.269 50.3166 140.666 49.5974C140.666 49.5974 140.731 49.7688 140.984 49.7052C141.458 49.0449 141.679 48.4482 141.901 47.8515C141.901 47.8515 141.93 47.9395 142.146 47.8436C142.548 47.4374 142.735 47.1273 142.922 46.8171C142.922 46.8171 142.937 46.9387 143.143 46.8399C143.536 46.4268 143.722 46.1123 143.909 45.7979C143.909 45.7979 143.908 45.9095 144.211 45.8955C144.964 45.1872 145.414 44.4928 145.864 43.7985C145.864 43.7985 145.912 43.9089 146.128 43.8155C146.538 43.3964 146.732 43.0708 146.927 42.7451C146.944 42.4213 147.099 42.1871 147.949 41.9827C148.87 41.4461 149.231 40.9693 149.592 40.4925C149.592 40.4925 149.709 40.5377 149.963 40.5976C150.414 40.3293 150.61 40.001 150.806 39.6728C150.806 39.6728 150.817 39.8065 151.117 39.8356C152.58 38.8368 153.744 37.8089 154.907 36.781C154.907 36.781 154.92 36.8896 155.247 36.9186C156.613 36.1502 157.652 35.3529 158.692 34.5556C158.692 34.5556 158.8 34.6634 159.015 34.687C159.473 34.4358 159.717 34.1611 159.961 33.8863C159.961 33.8863 159.965 33.9678 160.31 33.9661C162.069 33.1766 163.483 32.3886 164.898 31.6007Z" fill="#137AC6"/>
<path d="M587.826 640.438C587.473 638.612 587.029 636.339 587.028 634.065C586.998 526.324 587.005 418.584 587.227 310.397C587.446 309.951 587.883 310.03 587.883 310.03C587.922 352.524 587.99 395.018 587.994 437.512C588 505.005 587.962 572.497 587.826 640.438Z" fill="#004EB1"/>
<path d="M578.882 219.056C576.107 219.145 573.029 218.978 569.951 218.977C529.224 218.96 488.496 218.885 447.769 219.08C443.289 219.101 438.816 220.707 433.952 221.548C437.276 220.084 440.979 217.431 444.703 217.402C486.273 217.08 527.847 217.125 569.42 217.21C572.474 217.217 575.526 218.296 578.882 219.056Z" fill="#2F82CA"/>
<path d="M293.034 656.923C293.777 656.623 294.518 656.066 295.264 656.06C339.325 655.701 383.386 655.386 427.447 655.083C427.76 655.081 428.074 655.281 428.219 655.688C406.676 655.994 385.303 655.969 363.93 656.062C362.327 656.069 360.727 656.913 359.126 657.368C354.33 657.549 349.535 657.857 344.738 657.887C327.792 657.993 310.845 658.004 293.463 657.727C293.028 657.404 293.034 656.923 293.034 656.923Z" fill="#277CC6"/>
<path d="M359.571 657.468C360.727 656.913 362.327 656.069 363.93 656.062C385.303 655.969 406.677 655.994 428.516 655.979C477.871 655.657 526.758 655.346 576.123 655.048C573.597 655.724 570.596 656.956 567.59 656.968C517.773 657.163 467.955 657.204 417.26 657.107C415.51 657.002 414.638 657.069 413.766 657.136C410.217 657.184 406.667 657.232 402.235 657.107C400.146 657.007 398.939 657.08 397.732 657.153C396.812 657.206 395.891 657.26 394.182 657.133C392.485 657.033 391.575 657.113 390.665 657.193C385.19 657.259 379.715 657.326 373.586 657.218C372.596 656.984 372.306 657.073 372.062 657.312C368.047 657.397 364.032 657.483 359.571 657.468Z" fill="#0152B4"/>
<path d="M292.563 656.95C293.034 656.923 293.028 657.404 292.999 657.643C248.573 657.923 204.176 657.976 159.779 658.002C132.508 658.018 105.237 657.992 77.5037 657.923C78.9558 657.574 80.8703 657.038 82.7851 657.036C152.554 656.986 222.323 656.985 292.563 656.95Z" fill="#0152B4"/>
<path d="M587.969 309.566C587.883 310.03 587.446 309.951 587.226 309.922C586.35 301.201 585.342 292.517 585.139 283.815C584.945 275.509 585.79 267.184 585.803 258.867C585.815 251.791 585.162 244.717 585.067 237.638C585.028 234.708 585.676 231.77 586.228 228.416C586.445 227.998 586.852 228.007 586.852 228.007C587.154 229.788 587.708 231.567 587.719 233.35C587.875 258.601 587.956 283.851 587.969 309.566Z" fill="#277CC6"/>
<path d="M429.97 322.969C427.931 323.646 425.895 324.902 423.852 324.912C397.626 325.045 371.399 324.921 345.173 325.074C340.63 325.101 336.092 326.11 331.297 326.414C336.327 325.112 341.603 323.219 346.9 323.154C373.894 322.827 400.893 322.972 428.637 322.952C429.58 322.957 429.775 322.963 429.97 322.969Z" fill="#046BC0"/>
<path d="M212.996 552.962C158.051 552.976 103.106 552.991 48.1616 552.993C47.3402 552.993 46.5188 552.824 45.3809 552.475C46.2206 552.141 47.3769 552.002 48.5331 552.002C103.046 551.998 157.559 552.006 212.535 552.287C212.998 552.561 212.996 552.962 212.996 552.962Z" fill="#004EB1"/>
<path d="M157.515 149.052C154.589 149.615 151.122 149.762 147.839 150.615C122.392 157.226 96.9803 163.975 71.5536 170.665C70.9262 170.83 70.2483 170.802 69.1931 170.739C77.3845 167.985 85.9136 165.123 94.5822 162.777C111.411 158.223 128.284 153.82 145.218 149.679C148.997 148.754 153.104 149.166 157.515 149.052Z" fill="#0C5FB9"/>
<path d="M218.483 446.057C218.544 479.672 218.278 513.486 217.933 547.3C217.918 548.788 217.182 550.268 216.397 551.876C216.25 543.736 216.646 535.473 216.694 527.208C216.837 502.812 216.806 478.414 216.955 454.018C216.97 451.429 217.728 448.843 218.483 446.057Z" fill="#0152B4"/>
<path d="M308.96 205.362C288.783 206.329 269.963 214.448 250.232 218.351C248.063 218.78 245.736 218.413 243.289 218.055C248.73 216.595 254.409 215.686 259.988 214.358C272.864 211.294 285.654 207.858 298.566 204.961C301.776 204.241 305.318 204.998 308.96 205.362Z" fill="#1067BE"/>
<path d="M62.0123 322.946C59.8691 330.215 57.9547 337.561 55.5331 344.736C51.0365 358.059 46.2439 371.281 41.0829 384.775C40.5912 385.004 40.1528 385.006 40.1528 385.006C47.2444 364.141 54.3359 343.277 61.7125 322.417C62.0024 322.597 62.0074 322.772 62.0123 322.946Z" fill="#1067BE"/>
<path d="M121.456 345.278C123.509 345.211 126.035 344.67 128.364 345.129C146.027 348.608 163.66 352.246 181.276 355.959C182.893 356.3 184.327 357.508 185.92 358.676C177.206 357.031 168.44 354.917 159.625 353.038C147.048 350.357 134.435 347.848 121.456 345.278Z" fill="#0C5FB9"/>
<path d="M185.466 360.116C185.411 364.784 185.231 369.725 184.609 374.61C183.194 385.74 181.093 396.806 180.238 407.972C179.876 412.697 181.95 417.608 182.847 422.845C177.1 415.586 178.607 406.878 179.617 398.452C181.144 385.718 183.27 373.057 185.466 360.116Z" fill="#0C5FB9"/>
<path d="M429.976 322.504C429.775 322.963 429.58 322.957 429.093 322.935C428.837 293.812 428.85 264.706 428.945 235.6C428.954 233 429.491 230.402 430.183 227.407C430.583 227.01 431.019 226.973 431.019 226.973C430.674 231.745 430.049 236.516 430.031 241.289C429.934 268.205 429.983 295.122 429.976 322.504Z" fill="#0152B4"/>
<path d="M319.514 435.044C318.238 435.405 316.499 435.968 314.758 435.973C293.957 436.034 273.154 435.829 252.357 436.1C243.786 436.212 235.227 437.301 226.229 437.89C229.894 436.883 233.985 435.147 238.091 435.109C265.075 434.864 292.063 434.985 319.514 435.044Z" fill="#0C5FB9"/>
<path d="M321.556 339.134C321.93 369.768 321.97 400.675 321.979 431.582C321.979 432.545 321.657 433.509 321.139 434.713C320.86 405.754 320.923 376.555 321.005 347.356C321.013 344.706 321.143 342.056 321.556 339.134Z" fill="#004EB1"/>
<path d="M94.3949 227.977C94.0989 230.422 93.772 233.173 92.912 235.746C88.5799 248.706 84.1347 261.628 79.6508 274.537C79.1353 276.021 78.1313 277.335 76.9897 278.819C82.4565 262.007 88.2874 245.104 94.3949 227.977Z" fill="#0C5FB9"/>
<path d="M32.619 561.116C32.6212 585.884 32.3114 610.892 31.9826 635.899C31.9588 637.712 31.7965 639.523 31.427 641.643C31.0838 616.659 30.9878 591.365 30.9997 566.072C31.0005 564.5 31.8484 562.928 32.619 561.116Z" fill="#0152B4"/>
<path d="M436.392 105.936C438.551 92.7543 440.985 79.3702 443.508 66.0028C444.282 61.8992 445.298 57.8412 446.5 53.8704C444.232 68.9225 441.717 83.8756 439.047 98.8011C438.622 101.178 437.5 103.43 436.392 105.936Z" fill="#0C5FB9"/>
<path d="M212.958 34.6037C209.113 33.5615 205.1 32.1537 201.04 30.8993C190.438 27.6239 179.879 28.4381 169.349 31.3455C168.448 31.5943 167.464 31.5433 166.271 31.3735C182.127 24.5279 197.683 25.9798 212.958 34.6037Z" fill="#1067BE"/>
<path d="M134.215 60.0541C133.625 64.9445 133.036 70.1103 131.905 75.1543C129.75 84.7673 132.568 93.6673 135.281 102.63C135.56 103.553 135.659 104.53 135.695 105.874C128.149 91.1712 128.125 75.8233 134.215 60.0541Z" fill="#1067BE"/>
<path d="M236.404 371.918C237.049 365.624 237.883 359.101 239.032 352.635C240.711 343.182 241.863 333.791 238.266 324.131C242.824 329.975 242.652 337.173 241.768 344.126C240.59 353.386 238.457 362.525 236.404 371.918Z" fill="#0C5FB9"/>
<path d="M170.407 136.984C173.197 136.954 176.499 136.482 179.522 137.196C186.829 138.923 193.499 136.486 200.324 134.836C202.39 134.337 204.422 133.693 206.873 133.224C195.615 139.435 183.462 140.772 170.407 136.984Z" fill="#1067BE"/>
<path d="M236.473 101.994C236.765 94.8138 237.604 87.4432 237.912 80.0505C238.083 75.9631 237.365 71.8387 237.096 67.2714C241.402 78.5159 240.454 90.1685 236.473 101.994Z" fill="#1067BE"/>
<path d="M13.6018 457.066C12.6458 461.908 10.6953 466.927 10.3348 472.058C9.86133 478.797 10.6402 485.624 10.7684 492.836C7.0046 486.884 7.37606 479.877 8.41834 473.137C9.2541 467.733 11.6251 462.566 13.6018 457.066Z" fill="#0C5FB9"/>
<path d="M226.392 420.955C228.188 410.601 230.286 400.06 232.665 389.272C231.877 399.806 231.686 410.76 226.392 420.955Z" fill="#0C5FB9"/>
<path d="M73.3607 287.977C72.9507 290.772 72.5472 293.884 71.5376 296.786C68.9846 304.122 66.1591 311.364 63.1157 318.795C66.2229 308.696 69.6571 298.447 73.3607 287.977Z" fill="#0C5FB9"/>
<path d="M190.962 430.566C200.096 431.289 209.438 432.066 218.807 428.132C210.351 434.077 200.938 434.213 190.962 430.566Z" fill="#1067BE"/>
<path d="M284.366 254.692C284.042 254.174 283.987 253.183 284.177 253.134C292.204 251.047 300.253 249.045 308.717 247.058C301.005 249.608 292.876 252.133 284.366 254.692Z" fill="#0C5FB9"/>
<path d="M383.638 8.33728C384.388 8.66643 384.74 9.01006 385.66 9.90952C376.683 10.9664 368.207 11.9642 359.27 12.9072C366.951 11.3522 375.095 9.85194 383.638 8.33728Z" fill="#0C5FB9"/>
<path d="M298.605 125.067C296.971 131.632 298.444 138.034 300.946 144.722C296.506 138.97 294.342 132.523 298.605 125.067Z" fill="#1067BE"/>
<path d="M320.371 236.893C319.725 229.975 319.382 222.833 319.083 215.258C322.716 221.888 323.635 229.141 320.371 236.893Z" fill="#0C5FB9"/>
<path d="M19.1018 503.375C19.7057 503.067 20.6902 502.758 21.3454 503.093C28.0197 506.506 34.6343 504.116 41.6881 503.045C34.6225 507.214 27.0247 507.267 19.1018 503.375Z" fill="#0C5FB9"/>
<path d="M226.017 262.469C226.943 262.182 228.097 262.166 229.248 262.216C235.255 262.472 241.261 262.745 247.721 263.031C240.821 266.352 233.519 265.574 226.017 262.469Z" fill="#0C5FB9"/>
<path d="M32.3472 406.978C30.5064 413.044 28.4 419.328 25.9194 425.674C27.724 419.556 29.9029 413.376 32.3472 406.978Z" fill="#0C5FB9"/>
<path d="M452.881 0.615702C446.593 1.17466 440.083 1.41131 433.29 1.3675C439.558 0.822505 446.109 0.557948 452.881 0.615702Z" fill="#0C5FB9"/>
<path d="M2.37841 251.042C3.06367 256.348 3.44784 261.898 3.75413 267.859C-0.228447 262.925 0.350318 257.159 2.37841 251.042Z" fill="#0C5FB9"/>
<path d="M224.054 310.32C220.235 309.372 216.207 308.154 212.101 306.594C215.964 307.518 219.904 308.784 224.054 310.32Z" fill="#0C5FB9"/>
<path d="M101.401 387.96C102.902 383.865 104.695 379.57 106.824 375.162C105.338 379.286 103.516 383.523 101.401 387.96Z" fill="#0C5FB9"/>
<path d="M98.8307 215.295C97.7858 219.199 96.5479 223.407 94.9399 227.69C95.9258 223.71 97.2817 219.655 98.8307 215.295Z" fill="#0C5FB9"/>
<path d="M21.319 437.001C20.1481 441.058 18.7128 445.329 16.9001 449.621C18.0334 445.5 19.544 441.357 21.319 437.001Z" fill="#0C5FB9"/>
<path d="M64.3955 470.952C65.6616 467.249 67.212 463.335 69.1277 459.465C67.8886 463.253 66.2842 466.998 64.3955 470.952Z" fill="#0C5FB9"/>
<path d="M80.5764 435.065C81.7664 431.64 83.2341 428.005 85.062 424.312C83.8996 427.788 82.3768 431.322 80.5764 435.065Z" fill="#0C5FB9"/>
<path d="M25.3708 425.971C24.5144 429.357 23.3902 432.97 21.8955 436.622C22.7177 433.174 23.9104 429.685 25.3708 425.971Z" fill="#0C5FB9"/>
<path d="M233.376 387.962C233.498 384.936 233.946 381.724 234.677 378.264C234.541 381.27 234.122 384.522 233.376 387.962Z" fill="#0C5FB9"/>
<path d="M40.0207 385.353C40.153 385.006 40.5915 385.004 40.8111 385.006C39.8858 388.24 38.741 391.472 37.2632 394.844C37.9163 391.889 38.9024 388.794 40.0207 385.353Z" fill="#0C5FB9"/>
<path d="M312.091 155.4C315.33 155.09 318.802 155.081 322.75 155.151C319.592 155.388 315.958 155.545 312.091 155.4Z" fill="#1067BE"/>
<path d="M232.404 110.968C233.271 108.225 234.431 105.291 235.92 102.218C235.065 104.977 233.881 107.878 232.404 110.968Z" fill="#1067BE"/>
<path d="M35.3939 398.974C34.8713 401.366 34.08 403.985 32.9124 406.654C33.399 404.203 34.2621 401.701 35.3939 398.974Z" fill="#0C5FB9"/>
<path d="M91.3452 410.894C91.9619 408.554 92.8543 405.99 94.1213 403.447C93.5376 405.868 92.5794 408.27 91.3452 410.894Z" fill="#0C5FB9"/>
<path d="M76.032 280.381C75.5278 282.561 74.9039 285.09 73.9116 287.669C74.3329 285.389 75.1226 283.06 76.032 280.381Z" fill="#0C5FB9"/>
<path d="M52.5796 494.157C53.4279 492.318 54.5648 490.314 56.0722 488.305C55.2513 490.197 54.0598 492.095 52.5796 494.157Z" fill="#0C5FB9"/>
<path d="M6.59268 243.997C5.68477 246.099 4.47513 248.362 2.90698 250.657C3.79596 248.512 5.04346 246.335 6.59268 243.997Z" fill="#0C5FB9"/>
<path d="M16.3403 450.007C15.9081 452.1 15.2103 454.404 14.1597 456.821C14.5628 454.695 15.3188 452.457 16.3403 450.007Z" fill="#0C5FB9"/>
<path d="M88.324 417.876C88.8542 415.831 89.6503 413.56 90.7885 411.162C90.2836 413.24 89.4368 415.445 88.324 417.876Z" fill="#0C5FB9"/>
<path d="M60.6208 479.061C61.0758 477.277 61.7942 475.281 62.865 473.18C62.4398 475 61.662 476.924 60.6208 479.061Z" fill="#0C5FB9"/>
<path d="M207.605 133.325C208.979 132.289 210.687 131.166 212.776 130.076C211.417 131.151 209.678 132.195 207.605 133.325Z" fill="#1067BE"/>
<path d="M56.636 488.08C57.0797 486.287 57.7913 484.285 58.8538 482.176C58.4378 484.002 57.6709 485.937 56.636 488.08Z" fill="#0C5FB9"/>
<path d="M231.153 206.472C229.913 205.641 228.546 204.517 227.279 203.021C228.594 203.826 229.81 205.002 231.153 206.472Z" fill="#1067BE"/>
<path d="M429.95 105.369C431.633 105.379 433.474 105.697 435.722 106.047C433.879 109.586 432.008 107.414 429.95 105.369Z" fill="#0C5FB9"/>
<path d="M107.372 374.93C107.958 372.884 108.826 370.629 110.058 368.307C109.5 370.401 108.577 372.561 107.372 374.93Z" fill="#0C5FB9"/>
<path d="M98.6929 394.047C99.1187 392.26 99.8089 390.272 100.847 388.172C100.449 389.99 99.703 391.918 98.6929 394.047Z" fill="#0C5FB9"/>
<path d="M54.5663 178.914C53.7482 180.159 52.6245 181.52 51.1438 182.873C51.9447 181.587 53.1026 180.309 54.5663 178.914Z" fill="#0C5FB9"/>
<path d="M237.223 66.543C236.516 64.8374 235.781 62.7415 235.084 60.24C235.814 61.9406 236.504 64.0466 237.223 66.543Z" fill="#1067BE"/>
<path d="M229.902 313.665C228.187 313.061 226.283 312.172 224.341 310.919C226.107 311.496 227.909 312.438 229.902 313.665Z" fill="#0C5FB9"/>
<path d="M46.5324 187.942C45.65 189.743 44.4765 191.714 42.9346 193.676C43.7912 191.816 45.0163 189.963 46.5324 187.942Z" fill="#0C5FB9"/>
<path d="M252.425 262.124C254.173 261.556 256.32 260.954 258.715 260.602C256.917 261.265 254.87 261.677 252.425 262.124Z" fill="#0C5FB9"/>
<path d="M75.6069 446.085C76.045 444.286 76.7594 442.285 77.8167 440.165C77.4007 441.991 76.6421 443.937 75.6069 446.085Z" fill="#0C5FB9"/>
<path d="M238.376 323.307C237.344 322.262 236.216 320.904 235.106 319.181C236.176 320.208 237.227 321.601 238.376 323.307Z" fill="#0C5FB9"/>
<path d="M325.696 154.36C326.723 153.339 328.055 152.21 329.748 151.073C328.74 152.128 327.371 153.19 325.696 154.36Z" fill="#1067BE"/>
<path d="M585.346 224.95C584.459 224.238 583.438 223.265 582.467 221.932C583.415 222.611 584.314 223.65 585.346 224.95Z" fill="#2F82CA"/>
<path d="M235.338 377.022C235.205 375.6 235.358 374.035 235.831 372.244C235.975 373.638 235.798 375.259 235.338 377.022Z" fill="#0C5FB9"/>
<path d="M453.955 12.6704C453.765 11.449 453.665 9.92249 453.869 8.20935C454.131 9.47026 454.087 10.9178 453.955 12.6704Z" fill="#0C5FB9"/>
<path d="M41.5739 194.959C41.0836 196.122 40.3006 197.431 39.1636 198.838C39.6334 197.659 40.4573 196.383 41.5739 194.959Z" fill="#0C5FB9"/>
<path d="M425.916 100.419C426.858 101.205 427.896 102.301 428.951 103.762C427.983 102.994 426.998 101.862 425.916 100.419Z" fill="#0C5FB9"/>
<path d="M347.477 134.113C347.969 133.203 348.75 132.168 349.906 131.182C349.441 132.149 348.603 133.069 347.477 134.113Z" fill="#1067BE"/>
<path d="M154.578 36.8499C153.744 37.8088 152.581 38.8368 151.06 39.8013C151.884 38.7982 153.067 37.8585 154.578 36.8499Z" fill="#1067BE"/>
<path d="M222.959 41.6466C221.773 41.1232 220.432 40.3122 219.081 39.142C220.315 39.6414 221.56 40.5002 222.959 41.6466Z" fill="#1067BE"/>
<path d="M72.5732 453.062C72.6963 451.942 73.0862 450.616 73.8285 449.173C73.734 450.322 73.287 451.59 72.5732 453.062Z" fill="#0C5FB9"/>
<path d="M43.7493 502.379C44.5337 501.432 45.6201 500.384 47.0612 499.383C46.2943 500.379 45.1729 501.329 43.7493 502.379Z" fill="#0C5FB9"/>
<path d="M216.438 128.089C216.971 127.231 217.807 126.263 219.01 125.284C218.497 126.176 217.618 127.078 216.438 128.089Z" fill="#1067BE"/>
<path d="M78.3616 439.922C78.611 438.547 79.1347 436.958 80.019 435.271C79.7984 436.684 79.2171 438.196 78.3616 439.922Z" fill="#0C5FB9"/>
<path d="M235.172 59.5834C234.516 58.7681 233.824 57.6134 233.25 56.0873C233.958 56.8919 234.546 58.068 235.172 59.5834Z" fill="#1067BE"/>
<path d="M70.6484 457.066C70.8069 455.951 71.2197 454.634 72.0176 453.272C71.9027 454.439 71.4027 455.651 70.6484 457.066Z" fill="#0C5FB9"/>
<path d="M187.05 428.317C188.148 428.556 189.424 429.082 190.767 429.978C189.631 429.767 188.43 429.186 187.05 428.317Z" fill="#0C5FB9"/>
<path d="M454.421 7.93118C454.061 6.34512 454.038 4.55627 454.052 2.32104C454.312 3.82591 454.536 5.77714 454.421 7.93118Z" fill="#0C5FB9"/>
<path d="M135.586 106.706C136.317 107.713 137.138 109.044 137.934 110.754C137.165 109.766 136.421 108.398 135.586 106.706Z" fill="#1067BE"/>
<path d="M138.617 52.0247C138.364 53.1223 137.826 54.3872 136.903 55.6372C137.123 54.4788 137.728 53.3354 138.617 52.0247Z" fill="#1067BE"/>
<path d="M164.552 31.6879C163.483 32.3885 162.068 33.1765 160.272 33.949C161.329 33.2141 162.768 32.4946 164.552 31.6879Z" fill="#1067BE"/>
<path d="M86.5422 422.063C86.6555 420.943 87.042 419.621 87.7687 418.163C87.6778 419.304 87.2466 420.582 86.5422 422.063Z" fill="#0C5FB9"/>
<path d="M95.7036 401.034C95.8466 399.926 96.2363 398.62 97.01 397.264C96.9128 398.422 96.4315 399.629 95.7036 401.034Z" fill="#0C5FB9"/>
<path d="M115.658 357.049C115.769 355.939 116.132 354.618 116.851 353.182C116.774 354.323 116.342 355.581 115.658 357.049Z" fill="#0C5FB9"/>
<path d="M112.62 364.068C112.734 362.949 113.109 361.622 113.837 360.177C113.754 361.326 113.317 362.593 112.62 364.068Z" fill="#0C5FB9"/>
<path d="M158.376 34.6454C157.652 35.3528 156.613 36.1502 155.194 36.9039C155.897 36.152 156.979 35.4436 158.376 34.6454Z" fill="#1067BE"/>
<path d="M217.887 37.7118C216.831 37.4084 215.6 36.8329 214.428 35.8793C215.562 36.1474 216.638 36.7936 217.887 37.7118Z" fill="#1067BE"/>
<path d="M30.6537 210.036C30.4849 210.883 30.0401 211.884 29.2292 212.906C29.3681 212.015 29.8729 211.103 30.6537 210.036Z" fill="#0C5FB9"/>
<path d="M328.599 95.8998C328.064 96.7684 327.228 97.7534 326.058 98.7967C326.582 97.9087 327.439 96.9624 328.599 95.8998Z" fill="#1067BE"/>
<path d="M233.355 55.3779C232.786 54.9048 232.13 54.1361 231.72 53.1831C232.399 53.6933 232.834 54.3878 233.355 55.3779Z" fill="#1067BE"/>
<path d="M313.091 207.43C311.984 207.212 310.687 206.724 309.377 205.865C310.543 206.049 311.722 206.604 313.091 207.43Z" fill="#1067BE"/>
<path d="M32.684 207.073C32.5057 207.908 32.0556 208.9 31.2427 209.915C31.3906 209.035 31.9014 208.132 32.684 207.073Z" fill="#0C5FB9"/>
<path d="M10.635 493.599C11.3328 494.356 12.1092 495.438 12.8344 496.888C12.0933 496.146 11.4034 495.036 10.635 493.599Z" fill="#0C5FB9"/>
<path d="M220.983 426C221.928 425.121 222.873 424.241 224.143 423.484C223.857 424.341 223.244 425.074 222.08 425.908C221.347 426.006 221.165 426.003 220.983 426Z" fill="#0C5FB9"/>
<path d="M582.221 221.173C581.425 221.001 580.48 220.598 579.657 219.845C580.543 219.978 581.307 220.46 582.221 221.173Z" fill="#2F82CA"/>
<path d="M213.408 130.086C213.876 129.462 214.653 128.757 215.807 128.096C215.363 128.762 214.539 129.384 213.408 130.086Z" fill="#1067BE"/>
<path d="M431.272 226.745C431.019 226.973 430.583 227.01 430.364 227.025C430.528 226.081 430.91 225.121 431.566 224C431.735 224.732 431.631 225.625 431.272 226.745Z" fill="#2F82CA"/>
<path d="M300.546 122.884C300.407 123.476 299.987 124.184 299.215 124.906C299.331 124.28 299.798 123.64 300.546 122.884Z" fill="#1067BE"/>
<path d="M302.581 120.911C302.402 121.49 301.942 122.178 301.124 122.848C301.277 122.226 301.789 121.623 302.581 120.911Z" fill="#1067BE"/>
<path d="M243.18 217.456C242.585 217.325 241.857 216.928 241.133 216.168C241.773 216.267 242.41 216.728 243.18 217.456Z" fill="#1067BE"/>
<path d="M398.032 657.299C398.939 657.08 400.146 657.007 401.798 657.038C400.939 657.243 399.636 657.344 398.032 657.299Z" fill="#277CC6"/>
<path d="M225.324 200.298C224.716 200.24 223.988 199.906 223.123 199.018C222.994 198.293 223.002 198.121 223.01 197.949C223.742 198.64 224.473 199.33 225.324 200.298Z" fill="#1067BE"/>
<path d="M58.6025 175.86C58.1345 176.501 57.351 177.215 56.2227 177.93C56.6808 177.265 57.4839 176.599 58.6025 175.86Z" fill="#0C5FB9"/>
<path d="M61.6206 173.885C61.129 174.515 60.322 175.215 59.1663 175.895C59.6467 175.236 60.4759 174.595 61.6206 173.885Z" fill="#0C5FB9"/>
<path d="M307.775 152.722C308.369 152.782 309.129 153.082 309.916 153.744C309.276 153.724 308.608 153.343 307.775 152.722Z" fill="#1067BE"/>
<path d="M300.962 145.357C301.523 145.59 302.167 146.112 302.731 146.99C302.116 146.779 301.581 146.212 300.962 145.357Z" fill="#1067BE"/>
<path d="M224.927 423.26C224.934 422.655 225.171 421.888 225.779 421.101C225.819 421.753 225.488 422.425 224.927 423.26Z" fill="#0C5FB9"/>
<path d="M358.536 12.774C357.79 13.0416 356.653 13.3488 355.282 13.415C356.081 13.054 357.114 12.9338 358.536 12.774Z" fill="#0C5FB9"/>
<path d="M62.3009 322.721C62.0074 322.772 62.0024 322.597 61.9788 322.162C62.0672 320.995 62.1743 320.089 62.5804 319.008C62.7827 320.053 62.6861 321.275 62.3009 322.721Z" fill="#0C5FB9"/>
<path d="M433.203 221.787C433.135 222.352 432.837 223.079 432.181 223.831C432.206 223.22 432.589 222.585 433.203 221.787Z" fill="#2F82CA"/>
<path d="M341.296 83.6726C340.923 84.3399 340.278 85.1336 339.283 85.9464C339.631 85.2433 340.327 84.5211 341.296 83.6726Z" fill="#1067BE"/>
<path d="M36.7163 395.177C36.7426 396.145 36.5232 397.365 35.9301 398.688C35.8611 397.671 36.166 396.55 36.7163 395.177Z" fill="#0C5FB9"/>
<path d="M315.378 243.158C315.547 242.56 316.005 241.839 316.825 241.116C316.68 241.754 316.174 242.394 315.378 243.158Z" fill="#0C5FB9"/>
<path d="M10.2968 238.766C10.1076 239.616 9.64932 240.605 8.84521 241.516C9.00883 240.594 9.51831 239.75 10.2968 238.766Z" fill="#0C5FB9"/>
<path d="M12.3381 235.857C12.1427 236.671 11.6998 237.657 10.8818 238.585C11.0347 237.694 11.5626 236.862 12.3381 235.857Z" fill="#0C5FB9"/>
<path d="M15.1394 231.829C15.0861 232.39 14.8352 233.137 14.218 233.901C14.2151 233.284 14.5784 232.649 15.1394 231.829Z" fill="#0C5FB9"/>
<path d="M18.6164 226.992C18.4187 227.809 17.9353 228.773 17.1143 229.827C17.2946 228.99 17.8127 228.064 18.6164 226.992Z" fill="#0C5FB9"/>
<path d="M145.583 43.9108C145.414 44.4928 144.964 45.1871 144.159 45.8756C144.304 45.2542 144.803 44.6387 145.583 43.9108Z" fill="#1067BE"/>
<path d="M222.547 439.867C222.41 440.482 221.973 441.197 221.18 441.934C221.298 441.293 221.772 440.63 222.547 439.867Z" fill="#0C5FB9"/>
<path d="M74.383 448.963C74.3026 448.231 74.5032 447.311 75.0644 446.297C75.1713 447.06 74.9177 447.918 74.383 448.963Z" fill="#0C5FB9"/>
<path d="M302.722 147.559C303.299 147.774 303.973 148.267 304.555 149.1C303.916 148.906 303.368 148.372 302.722 147.559Z" fill="#1067BE"/>
<path d="M414.032 657.281C414.638 657.069 415.51 657.002 416.81 657.037C416.259 657.235 415.279 657.33 414.032 657.281Z" fill="#277CC6"/>
<path d="M221.369 124.031C221.552 123.47 222.01 122.789 222.818 122.109C222.66 122.71 222.152 123.311 221.369 124.031Z" fill="#1067BE"/>
<path d="M339.509 142.224C339.7 141.648 340.182 140.963 341.004 140.254C340.829 140.858 340.315 141.486 339.509 142.224Z" fill="#1067BE"/>
<path d="M97.5538 397.061C97.4404 396.313 97.5947 395.37 98.1328 394.389C98.285 395.189 98.0532 396.027 97.5538 397.061Z" fill="#0C5FB9"/>
<path d="M59.3907 481.972C59.3116 481.244 59.5059 480.32 60.0628 479.306C60.1717 480.069 59.9178 480.922 59.3907 481.972Z" fill="#0C5FB9"/>
<path d="M48.2676 185.726C48.1537 186.307 47.78 187.028 47.071 187.813C47.1598 187.206 47.5838 186.536 48.2676 185.726Z" fill="#0C5FB9"/>
<path d="M354.514 127.221C354.699 126.645 355.174 125.958 355.987 125.236C355.818 125.838 355.311 126.474 354.514 127.221Z" fill="#1067BE"/>
<path d="M114.383 359.97C114.314 359.241 114.519 358.323 115.093 357.338C115.193 358.107 114.926 358.944 114.383 359.97Z" fill="#0C5FB9"/>
<path d="M117.388 352.98C117.329 352.253 117.539 351.337 118.124 350.39C118.218 351.171 117.938 351.981 117.388 352.98Z" fill="#0C5FB9"/>
<path d="M68.2919 170.527C67.9254 170.958 67.2435 171.448 66.1812 171.891C66.526 171.426 67.2513 171.006 68.2919 170.527Z" fill="#0C5FB9"/>
<path d="M322.64 335.702C322.767 336.487 322.599 337.524 322.086 338.765C321.941 337.964 322.143 336.959 322.64 335.702Z" fill="#004EB1"/>
<path d="M249.35 263.029C249.813 262.637 250.623 262.331 251.78 262.052C251.318 262.425 250.507 262.769 249.35 263.029Z" fill="#0C5FB9"/>
<path d="M218.706 257.689C219.303 257.795 220.027 258.177 220.834 258.886C220.222 258.798 219.528 258.382 218.706 257.689Z" fill="#0C5FB9"/>
<path d="M213.941 253.393C214.511 253.558 215.205 253.994 215.914 254.781C215.308 254.642 214.687 254.153 213.941 253.393Z" fill="#0C5FB9"/>
<path d="M312.285 245.563C312.542 245.13 313.061 244.595 313.893 244.059C313.654 244.526 313.1 244.993 312.285 245.563Z" fill="#0C5FB9"/>
<path d="M8.12576 241.735C8.06409 242.305 7.76166 243.027 7.13525 243.841C7.1692 243.25 7.5271 242.568 8.12576 241.735Z" fill="#0C5FB9"/>
<path d="M316.344 210.164C315.776 210.005 315.08 209.61 314.506 208.872C315.157 208.996 315.687 209.462 316.344 210.164Z" fill="#1067BE"/>
<path d="M390.942 657.348C391.575 657.113 392.485 657.033 393.843 657.06C393.267 657.28 392.244 657.392 390.942 657.348Z" fill="#277CC6"/>
<path d="M213.335 552.974C212.996 552.962 212.998 552.561 212.998 552.361C213.747 552.107 214.496 552.053 215.622 552.003C215.224 552.333 214.449 552.66 213.335 552.974Z" fill="#0152B4"/>
<path d="M48.8989 498.36C49.0308 497.774 49.4052 497.069 50.1299 496.473C50.0339 497.135 49.5877 497.688 48.8989 498.36Z" fill="#0C5FB9"/>
<path d="M16.7712 501.853C17.3295 501.916 18.0459 502.211 18.8586 502.822C18.2798 502.788 17.6045 502.437 16.7712 501.853Z" fill="#0C5FB9"/>
<path d="M586.833 227.756C586.852 228.007 586.445 227.998 586.242 227.992C585.825 227.431 585.611 226.875 585.603 226.057C586.143 226.365 586.478 226.935 586.833 227.756Z" fill="#2F82CA"/>
<path d="M384.304 97.9424C384.493 97.3933 384.961 96.7399 385.765 96.0575C385.594 96.6317 385.089 97.2349 384.304 97.9424Z" fill="#1067BE"/>
<path d="M140.382 49.7244C140.269 50.3166 139.872 51.0358 139.156 51.8476C139.258 51.2439 139.678 50.5476 140.382 49.7244Z" fill="#1067BE"/>
<path d="M338.688 86.0402C338.488 86.5897 338.008 87.243 337.185 87.8971C337.364 87.3132 337.886 86.7285 338.688 86.0402Z" fill="#1067BE"/>
<path d="M220.751 426.164C221.165 426.003 221.347 426.006 221.802 426.019C221.684 426.43 221.293 426.831 220.626 427.321C220.407 427.049 220.463 426.688 220.751 426.164Z" fill="#1067BE"/>
<path d="M314.387 109.633C314.298 109.997 313.934 110.455 313.235 110.928C313.304 110.537 313.707 110.132 314.387 109.633Z" fill="#1067BE"/>
<path d="M63.6199 172.829C63.4549 173.152 62.9797 173.534 62.1719 173.906C62.3294 173.56 62.8196 173.224 63.6199 172.829Z" fill="#0C5FB9"/>
<path d="M65.6001 171.794C65.4372 172.133 64.9608 172.521 64.1465 172.887C64.3012 172.524 64.7939 172.184 65.6001 171.794Z" fill="#0C5FB9"/>
<path d="M3.62964 268.569C4.01057 268.72 4.46039 269.195 4.90749 270.04C4.5027 269.903 4.10062 269.398 3.62964 268.569Z" fill="#0C5FB9"/>
<path d="M323.466 155.311C323.651 154.969 324.134 154.581 324.953 154.318C324.78 154.716 324.272 154.991 323.466 155.311Z" fill="#1067BE"/>
<path d="M310.07 154.315C310.487 154.24 311.081 154.416 311.813 154.881C311.383 154.968 310.814 154.766 310.07 154.315Z" fill="#1067BE"/>
<path d="M25.6737 217.047C25.736 217.49 25.5294 218.084 25.0069 218.78C24.929 218.32 25.1669 217.759 25.6737 217.047Z" fill="#0C5FB9"/>
<path d="M141.628 47.9836C141.679 48.4481 141.458 49.0448 140.895 49.6823C140.821 49.1873 141.087 48.6516 141.628 47.9836Z" fill="#1067BE"/>
<path d="M398.324 84.0197C398.327 83.5598 398.581 82.9953 399.161 82.5359C399.183 83.0658 398.879 83.4904 398.324 84.0197Z" fill="#0C5FB9"/>
<path d="M223.945 261.439C224.414 261.322 225.038 261.482 225.786 261.96C225.307 262.091 224.704 261.904 223.945 261.439Z" fill="#0C5FB9"/>
<path d="M135.195 57.9054C135.294 58.3457 135.214 58.9438 134.781 59.4479C134.625 58.9238 134.82 58.4935 135.195 57.9054Z" fill="#1067BE"/>
<path d="M136.318 55.8448C136.405 56.3093 136.281 56.9319 135.798 57.4835C135.661 56.9427 135.884 56.4728 136.318 55.8448Z" fill="#1067BE"/>
<path d="M23.6281 219.983C23.6811 220.446 23.4619 221.047 22.9005 221.694C22.8243 221.201 23.0901 220.661 23.6281 219.983Z" fill="#0C5FB9"/>
<path d="M224.172 438.587C224.114 438.966 223.798 439.43 223.134 439.87C223.162 439.455 223.538 439.064 224.172 438.587Z" fill="#0C5FB9"/>
<path d="M138.638 112.572C139.011 112.683 139.458 113.088 139.886 113.838C139.483 113.744 139.097 113.305 138.638 112.572Z" fill="#1067BE"/>
<path d="M119.571 348.1C119.418 347.639 119.521 346.996 119.943 346.216C120.117 346.692 119.972 347.304 119.571 348.1Z" fill="#0C5FB9"/>
<path d="M118.723 350.068C118.57 349.618 118.647 348.992 119.071 348.283C119.262 348.764 119.107 349.329 118.723 350.068Z" fill="#0C5FB9"/>
<path d="M35.6617 203.028C35.7145 203.477 35.4966 204.071 34.9506 204.744C34.8787 204.272 35.1349 203.723 35.6617 203.028Z" fill="#0C5FB9"/>
<path d="M37.6971 200.075C37.7482 200.502 37.5427 201.092 37.0277 201.791C36.9589 201.346 37.1996 200.793 37.6971 200.075Z" fill="#0C5FB9"/>
<path d="M111.671 366.1C111.542 365.645 111.642 365.01 112.095 364.312C112.266 364.806 112.084 365.363 111.671 366.1Z" fill="#0C5FB9"/>
<path d="M110.62 368.129C110.512 367.662 110.642 367.026 111.133 366.364C111.281 366.879 111.069 367.419 110.62 368.129Z" fill="#0C5FB9"/>
<path d="M222.407 197.34C221.983 197.273 221.527 196.91 221.049 196.21C221.476 196.264 221.925 196.654 222.407 197.34Z" fill="#0152B4"/>
<path d="M234.98 209.677C234.533 209.684 233.959 209.433 233.41 208.842C233.907 208.807 234.381 209.113 234.98 209.677Z" fill="#1067BE"/>
<path d="M28.6545 212.996C28.6833 213.456 28.4447 214.043 27.8624 214.626C27.8081 214.122 28.0976 213.623 28.6545 212.996Z" fill="#0C5FB9"/>
<path d="M319.169 214.623C318.84 214.46 318.46 213.986 318.088 213.181C318.437 213.337 318.777 213.825 319.169 214.623Z" fill="#0C5FB9"/>
<path d="M94.7594 403.065C94.6342 402.616 94.7198 402.007 95.1653 401.407C95.3402 401.912 95.1552 402.409 94.7594 403.065Z" fill="#0C5FB9"/>
<path d="M49.6336 183.971C49.6656 184.435 49.433 185.028 48.8534 185.608C48.7939 185.096 49.0814 184.598 49.6336 183.971Z" fill="#0C5FB9"/>
<path d="M85.6312 424.1C85.4898 423.641 85.5905 423 86.032 422.26C86.2063 422.746 86.0397 423.332 85.6312 424.1Z" fill="#0C5FB9"/>
<path d="M182.735 423.444C183.093 423.587 183.514 424.044 183.94 424.84C183.563 424.706 183.181 424.232 182.735 423.444Z" fill="#0C5FB9"/>
<path d="M15.021 500.276C15.4661 500.287 16.0302 500.552 16.5207 501.147C16.0114 501.162 15.5757 500.846 15.021 500.276Z" fill="#0C5FB9"/>
<path d="M226.379 119.039C226.344 118.569 226.577 117.978 227.157 117.401C227.218 117.915 226.932 118.416 226.379 119.039Z" fill="#1067BE"/>
<path d="M318.369 240.013C318.311 239.549 318.529 238.948 319.084 238.289C319.163 238.779 318.904 239.327 318.369 240.013Z" fill="#0C5FB9"/>
<path d="M13.6401 233.991C13.6829 234.453 13.4535 235.048 12.8808 235.672C12.8143 235.175 13.0911 234.649 13.6401 233.991Z" fill="#0C5FB9"/>
<path d="M309.352 247.111C309.53 246.789 310.025 246.423 310.853 246.052C310.68 246.387 310.175 246.727 309.352 247.111Z" fill="#0C5FB9"/>
<path d="M16.6049 229.929C16.639 230.402 16.4132 230.997 15.8432 231.539C15.781 231.007 16.063 230.529 16.6049 229.929Z" fill="#0C5FB9"/>
<path d="M230.358 114.016C230.332 113.558 230.568 112.97 231.148 112.391C231.202 112.896 230.911 113.391 230.358 114.016Z" fill="#1067BE"/>
<path d="M219.566 125.358C219.671 124.982 220.07 124.533 220.809 124.092C220.719 124.494 220.29 124.89 219.566 125.358Z" fill="#1067BE"/>
<path d="M12.7588 497.428C13.0969 497.557 13.5107 497.976 13.9594 498.715C13.6077 498.597 13.221 498.158 12.7588 497.428Z" fill="#0C5FB9"/>
<path d="M382.601 99.3551C382.681 98.9907 383.037 98.5338 383.721 98.0515C383.658 98.4383 383.266 98.8505 382.601 99.3551Z" fill="#1067BE"/>
<path d="M20.6925 224.067C20.7351 224.496 20.5193 225.085 19.9851 225.766C19.9225 225.314 20.1783 224.771 20.6925 224.067Z" fill="#0C5FB9"/>
<path d="M69.7552 459.043C69.6161 458.597 69.6945 457.986 70.1272 457.337C70.3118 457.826 70.1422 458.352 69.7552 459.043Z" fill="#0C5FB9"/>
<path d="M220.941 259.398C221.415 259.353 222.015 259.576 222.601 260.148C222.081 260.22 221.574 259.943 220.941 259.398Z" fill="#0C5FB9"/>
<path d="M217.06 256.297C217.494 256.289 218.068 256.539 218.648 257.126C218.168 257.16 217.684 256.857 217.06 256.297Z" fill="#0C5FB9"/>
<path d="M223.99 42.6225C223.726 42.7037 223.383 42.5464 223.052 42.1391C223.348 42.054 223.629 42.219 223.99 42.6225Z" fill="#1067BE"/>
<path d="M149.307 40.5825C149.231 40.9693 148.87 41.4461 148.162 41.9331C148.218 41.5197 148.62 41.0961 149.307 40.5825Z" fill="#1067BE"/>
<path d="M63.4023 473.022C63.2821 472.563 63.4376 471.946 63.8949 471.19C64.0239 471.655 63.8509 472.259 63.4023 473.022Z" fill="#0C5FB9"/>
<path d="M219.467 443.882C219.582 444.369 219.421 445.005 218.91 445.703C218.77 445.187 218.98 444.609 219.467 443.882Z" fill="#0152B4"/>
<path d="M348.67 76.9238C348.732 77.1338 348.532 77.4373 348.065 77.826C348.002 77.6132 348.205 77.3154 348.67 76.9238Z" fill="#1067BE"/>
<path d="M325.582 98.8196C325.663 99.0547 325.476 99.3828 324.999 99.7731C324.911 99.5277 325.113 99.2202 325.582 98.8196Z" fill="#1067BE"/>
<path d="M347.638 77.8804C347.702 78.1033 347.498 78.4138 347.01 78.7833C346.941 78.5508 347.156 78.2594 347.638 77.8804Z" fill="#1067BE"/>
<path d="M402.841 79.3444C402.605 79.1668 402.481 78.9306 402.357 78.6945C402.494 78.6972 402.632 78.7 402.894 78.8713C403.019 79.0399 402.954 79.2857 402.841 79.3444Z" fill="#0C5FB9"/>
<path d="M234.226 317.537C233.974 317.64 233.63 317.469 233.219 317.002C233.479 316.892 233.806 317.078 234.226 317.537Z" fill="#0C5FB9"/>
<path d="M334.682 89.9058C334.745 90.1062 334.551 90.4203 334.093 90.8358C334.027 90.6314 334.227 90.3254 334.682 89.9058Z" fill="#1067BE"/>
<path d="M349.662 75.9155C349.73 76.1223 349.542 76.4326 349.091 76.8383C349.021 76.6289 349.213 76.3239 349.662 75.9155Z" fill="#1067BE"/>
<path d="M342.36 82.6635C342.471 82.9302 342.338 83.2866 341.889 83.6257C341.754 83.3234 341.935 83.0382 342.36 82.6635Z" fill="#1067BE"/>
<path d="M391.297 91.0565C391.252 90.8684 391.458 90.5623 391.926 90.1497C391.975 90.3417 391.762 90.6401 391.297 91.0565Z" fill="#0C5FB9"/>
<path d="M336.675 87.9331C336.732 88.1372 336.528 88.444 336.06 88.847C336.001 88.6407 336.208 88.3383 336.675 87.9331Z" fill="#1067BE"/>
<path d="M394.297 88.0629C394.238 87.8665 394.432 87.5597 394.885 87.1484C394.946 87.3469 394.748 87.6497 394.297 88.0629Z" fill="#0C5FB9"/>
<path d="M222.754 260.643C222.999 260.49 223.353 260.588 223.803 260.966C223.554 261.129 223.209 261.011 222.754 260.643Z" fill="#0C5FB9"/>
<path d="M395.299 87.0383C395.241 86.8445 395.435 86.5461 395.881 86.1433C395.939 86.3373 395.745 86.6355 395.299 87.0383Z" fill="#0C5FB9"/>
<path d="M396.296 86.0316C396.238 85.8366 396.433 85.5393 396.881 85.1403C396.938 85.3354 396.743 85.6324 396.296 86.0316Z" fill="#0C5FB9"/>
<path d="M212.845 252.393C213.07 252.305 213.4 252.48 213.828 252.927C213.601 253.019 213.276 252.837 212.845 252.393Z" fill="#0C5FB9"/>
<path d="M211.86 251.33C212.069 251.27 212.396 251.476 212.805 251.97C212.584 252.037 212.281 251.817 211.86 251.33Z" fill="#0C5FB9"/>
<path d="M215.963 255.297C216.162 255.228 216.46 255.411 216.868 255.838C216.673 255.905 216.368 255.727 215.963 255.297Z" fill="#0C5FB9"/>
<path d="M399.803 82.3448C399.657 82.055 399.728 81.7136 400.101 81.4525C400.44 81.869 400.314 82.1225 399.803 82.3448Z" fill="#0C5FB9"/>
<path d="M344.473 80.725C344.573 80.9818 344.407 81.3291 343.935 81.7075C343.821 81.4309 344.014 81.1231 344.473 80.725Z" fill="#1067BE"/>
<path d="M400.8 81.3394C400.656 81.0504 400.733 80.7071 401.115 80.4341C401.439 80.8422 401.306 81.1025 400.8 81.3394Z" fill="#0C5FB9"/>
<path d="M345.488 79.736C345.586 79.9904 345.417 80.3355 344.942 80.7157C344.832 80.4428 345.027 80.1347 345.488 79.736Z" fill="#1067BE"/>
<path d="M346.567 78.7974C346.643 79.0418 346.448 79.3686 345.954 79.7302C345.869 79.4699 346.083 79.1748 346.567 78.7974Z" fill="#1067BE"/>
<path d="M231.065 314.68C230.856 314.761 230.547 314.585 230.133 314.157C230.339 314.078 230.652 314.251 231.065 314.68Z" fill="#0C5FB9"/>
<path d="M397.296 85.0338C397.237 84.836 397.433 84.5394 397.882 84.1416C397.94 84.3386 397.745 84.6367 397.296 85.0338Z" fill="#0C5FB9"/>
<path d="M232.112 315.645C231.895 315.725 231.575 315.545 231.155 315.099C231.373 315.017 231.691 315.201 232.112 315.645Z" fill="#0C5FB9"/>
<path d="M233.186 316.571C232.946 316.672 232.607 316.505 232.18 316.057C232.423 315.951 232.755 316.127 233.186 316.571Z" fill="#0C5FB9"/>
<path d="M343.463 81.6982C343.553 81.9641 343.382 82.309 342.9 82.6421C342.793 82.346 342.997 82.0616 343.463 81.6982Z" fill="#1067BE"/>
<path d="M235.119 318.648C234.895 318.708 234.585 318.495 234.225 317.992C234.46 317.927 234.747 318.151 235.119 318.648Z" fill="#0C5FB9"/>
<path d="M401.766 80.34C401.624 80.0552 401.714 79.7049 402.116 79.4005C402.439 79.8026 402.296 80.0785 401.766 80.34Z" fill="#0C5FB9"/>
<path d="M50.7334 496.351C50.5977 496.066 50.6976 495.712 51.1106 495.407C51.4295 495.818 51.2779 496.094 50.7334 496.351Z" fill="#0C5FB9"/>
<path d="M225.6 437.773C225.67 438.037 225.463 438.35 224.96 438.628C224.884 438.335 225.103 438.078 225.6 437.773Z" fill="#0C5FB9"/>
<path d="M219.851 443.127C220.15 443.205 220.282 443.425 220.414 443.646C220.282 443.691 220.149 443.735 219.799 443.739C219.582 443.697 219.684 443.27 219.851 443.127Z" fill="#0152B4"/>
<path d="M142.665 46.9191C142.735 47.1272 142.548 47.4374 142.1 47.8438C142.028 47.6338 142.218 47.3275 142.665 46.9191Z" fill="#1067BE"/>
<path d="M143.651 45.9006C143.723 46.1122 143.536 46.4267 143.082 46.8339C143.008 46.619 143.201 46.3112 143.651 45.9006Z" fill="#1067BE"/>
<path d="M146.667 42.8654C146.732 43.0708 146.538 43.3965 146.068 43.8211C145.997 43.6086 146.202 43.2971 146.667 42.8654Z" fill="#1067BE"/>
<path d="M150.542 39.7439C150.61 40.0009 150.414 40.3292 149.912 40.6329C149.83 40.344 150.054 40.0795 150.542 39.7439Z" fill="#1067BE"/>
<path d="M214.205 35.3192C213.991 35.4804 213.641 35.4192 213.174 35.0959C213.395 34.9215 213.732 35.0092 214.205 35.3192Z" fill="#1067BE"/>
<path d="M159.687 33.9312C159.717 34.161 159.473 34.4357 158.94 34.7012C158.904 34.4533 159.159 34.2147 159.687 33.9312Z" fill="#1067BE"/>
<path d="M454.058 1.68228C453.84 1.76236 453.536 1.57923 453.133 1.14178C453.346 1.06465 453.659 1.24186 454.058 1.68228Z" fill="#0C5FB9"/>
<path d="M51.7142 495.282C51.5608 495.022 51.6563 494.666 52.0541 494.254C52.2253 494.527 52.0942 494.856 51.7142 495.282Z" fill="#0C5FB9"/>
<path d="M365.88 59.8677C365.909 60.0701 365.643 60.3946 365.086 60.8362C365.058 60.6321 365.321 60.3109 365.88 59.8677Z" fill="#0C5FB9"/>
<path d="M47.6845 499.362C47.5546 499.076 47.6684 498.72 48.0938 498.413C48.2464 498.739 48.0873 499.016 47.6845 499.362Z" fill="#0C5FB9"/>
<path d="M42.3056 503.076C42.2763 502.848 42.517 502.578 43.0407 502.345C43.0743 502.6 42.825 502.817 42.3056 503.076Z" fill="#0C5FB9"/>
<path d="M33.8785 559.148C34.1695 559.229 34.2901 559.447 34.4107 559.665C34.2808 559.705 34.1509 559.745 33.8095 559.747C33.5981 559.709 33.7082 559.285 33.8785 559.148Z" fill="#0152B4"/>
<path d="M33.5428 559.786C33.6832 560.05 33.5395 560.399 33.1254 560.86C32.9896 560.604 33.1241 560.238 33.5428 559.786Z" fill="#0152B4"/>
<path d="M372.267 657.455C372.306 657.073 372.596 656.984 373.146 657.143C373.064 657.361 372.768 657.48 372.267 657.455Z" fill="#277CC6"/>
<path d="M350.639 74.8893C350.716 75.1064 350.531 75.4225 350.079 75.83C350 75.6103 350.189 75.2993 350.639 74.8893Z" fill="#1067BE"/>
<path d="M351.651 73.8915C351.724 74.1097 351.532 74.4261 351.068 74.8332C350.993 74.6125 351.189 74.3011 351.651 73.8915Z" fill="#0C5FB9"/>
<path d="M352.647 72.8864C352.721 73.1058 352.53 73.423 352.066 73.8313C351.99 73.6096 352.186 73.2969 352.647 72.8864Z" fill="#0C5FB9"/>
<path d="M353.66 71.9022C353.729 72.1196 353.532 72.4326 353.061 72.8305C352.99 72.6095 353.192 72.3037 353.66 71.9022Z" fill="#0C5FB9"/>
<path d="M354.664 70.9084C354.733 71.1211 354.539 71.4333 354.077 71.8383C354.006 71.6234 354.204 71.3157 354.664 70.9084Z" fill="#0C5FB9"/>
<path d="M355.678 69.8929C355.741 70.0948 355.546 70.4142 355.081 70.8365C355.014 70.6297 355.217 70.3201 355.678 69.8929Z" fill="#0C5FB9"/>
<path d="M357.679 67.9283C357.735 68.1326 357.529 68.4402 357.057 68.8468C357 68.6411 357.208 68.3363 357.679 67.9283Z" fill="#0C5FB9"/>
<path d="M120.37 346.136C120.295 345.913 120.487 345.591 120.957 345.183C121.036 345.411 120.836 345.723 120.37 346.136Z" fill="#0C5FB9"/>
<path d="M358.685 66.9376C358.745 67.1415 358.547 67.4452 358.087 67.8432C358.025 67.6376 358.226 67.3375 358.685 66.9376Z" fill="#0C5FB9"/>
<path d="M359.686 65.939C359.748 66.1418 359.552 66.4454 359.097 66.8475C359.035 66.6439 359.232 66.3418 359.686 65.939Z" fill="#0C5FB9"/>
<path d="M360.686 64.9414C360.748 65.1436 360.552 65.4467 360.097 65.8478C360.035 65.6447 360.232 65.3435 360.686 64.9414Z" fill="#0C5FB9"/>
<path d="M361.687 63.9419C361.749 64.1439 361.553 64.4469 361.099 64.8482C361.037 64.6453 361.234 64.3441 361.687 63.9419Z" fill="#0C5FB9"/>
<path d="M362.689 62.9021C362.75 63.0964 362.558 63.4143 362.104 63.8427C362.039 63.6441 362.238 63.3349 362.689 62.9021Z" fill="#0C5FB9"/>
<path d="M184.916 426.314C185.118 426.262 185.433 426.473 185.847 426.96C185.64 427.016 185.334 426.797 184.916 426.314Z" fill="#0C5FB9"/>
<path d="M219.378 428.155C219.324 427.922 219.541 427.613 220.055 427.288C220.118 427.54 219.883 427.809 219.378 428.155Z" fill="#1067BE"/>
<path d="M331.352 150.1C331.283 149.886 331.475 149.574 331.938 149.179C332.01 149.397 331.811 149.7 331.352 150.1Z" fill="#1067BE"/>
<path d="M345.505 136.254C345.406 136.001 345.573 135.657 346.042 135.27C346.153 135.539 345.963 135.851 345.505 136.254Z" fill="#1067BE"/>
<path d="M344.506 137.254C344.406 137.001 344.574 136.657 345.043 136.27C345.154 136.539 344.963 136.851 344.506 137.254Z" fill="#1067BE"/>
<path d="M343.518 138.261C343.416 138.007 343.578 137.661 344.044 137.271C344.159 137.541 343.971 137.855 343.518 138.261Z" fill="#1067BE"/>
<path d="M342.509 139.26C342.41 139.007 342.578 138.662 343.049 138.278C343.16 138.549 342.967 138.859 342.509 139.26Z" fill="#1067BE"/>
<path d="M341.495 140.249C341.4 139.997 341.572 139.654 342.048 139.272C342.154 139.54 341.958 139.85 341.495 140.249Z" fill="#1067BE"/>
<path d="M311.692 111.958C311.756 112.16 311.564 112.458 311.118 112.853C311.055 112.651 311.246 112.352 311.692 111.958Z" fill="#1067BE"/>
<path d="M338.48 143.233C338.385 142.985 338.557 142.644 339.028 142.252C339.134 142.514 338.941 142.827 338.48 143.233Z" fill="#1067BE"/>
<path d="M337.481 144.233C337.385 143.985 337.557 143.645 338.028 143.253C338.133 143.515 337.94 143.828 337.481 144.233Z" fill="#1067BE"/>
<path d="M336.462 145.221C336.372 144.975 336.551 144.638 337.027 144.253C337.126 144.512 336.928 144.821 336.462 145.221Z" fill="#1067BE"/>
<path d="M335.431 146.191C335.348 145.95 335.535 145.621 336.014 145.239C336.105 145.491 335.902 145.797 335.431 146.191Z" fill="#1067BE"/>
<path d="M334.429 147.185C334.341 146.947 334.522 146.617 334.989 146.22C335.083 146.467 334.89 146.78 334.429 147.185Z" fill="#1067BE"/>
<path d="M333.414 148.173C333.332 147.939 333.516 147.612 333.988 147.219C334.077 147.462 333.879 147.771 333.414 148.173Z" fill="#1067BE"/>
<path d="M332.365 149.121C332.299 148.899 332.498 148.586 332.979 148.206C333.051 148.436 332.841 148.733 332.365 149.121Z" fill="#1067BE"/>
<path d="M369.446 112.199C369.353 111.958 369.528 111.625 369.992 111.225C370.092 111.476 369.902 111.791 369.446 112.199Z" fill="#1067BE"/>
<path d="M304.64 149.726C304.913 149.61 305.263 149.712 305.541 150.121C305.136 150.393 304.886 150.232 304.64 149.726Z" fill="#1067BE"/>
<path d="M346.5 135.227C346.388 134.986 346.537 134.64 346.971 134.21C347.091 134.458 346.926 134.789 346.5 135.227Z" fill="#1067BE"/>
<path d="M305.641 150.782C305.913 150.662 306.257 150.742 306.504 151.122C306.101 151.392 305.87 151.246 305.641 150.782Z" fill="#1067BE"/>
<path d="M330.307 151.04C330.249 150.822 330.457 150.532 330.931 150.167C330.989 150.383 330.781 150.675 330.307 151.04Z" fill="#1067BE"/>
<path d="M306.705 151.83C306.956 151.683 307.305 151.748 307.644 152.124C307.307 152.411 307.029 152.279 306.705 151.83Z" fill="#1067BE"/>
<path d="M312.703 110.976C312.765 111.186 312.566 111.474 312.115 111.856C312.056 111.651 312.249 111.353 312.703 110.976Z" fill="#1067BE"/>
<path d="M231.651 112.225C231.493 112.001 231.567 111.645 231.91 111.178C232.081 111.408 231.982 111.75 231.651 112.225Z" fill="#1067BE"/>
<path d="M137.899 111.331C138.137 111.289 138.424 111.524 138.71 112.051C138.454 112.098 138.201 111.852 137.899 111.331Z" fill="#1067BE"/>
<path d="M370.436 111.19C370.348 110.95 370.527 110.619 370.996 110.224C371.091 110.473 370.898 110.786 370.436 111.19Z" fill="#1067BE"/>
<path d="M371.435 110.191C371.347 109.952 371.527 109.62 371.997 109.224C372.092 109.472 371.897 109.785 371.435 110.191Z" fill="#1067BE"/>
<path d="M55.695 177.956C55.7506 178.166 55.5418 178.462 55.0642 178.838C55.0073 178.626 55.2189 178.334 55.695 177.956Z" fill="#0C5FB9"/>
<path d="M315.392 108.68C315.502 108.943 315.359 109.299 314.901 109.66C314.771 109.367 314.955 109.069 315.392 108.68Z" fill="#1067BE"/>
<path d="M206.108 180.664C205.883 180.705 205.57 180.45 205.162 179.898C205.385 179.856 205.703 180.112 206.108 180.664Z" fill="#0152B4"/>
<path d="M207.117 181.66C206.891 181.735 206.572 181.534 206.16 181.057C206.386 180.982 206.705 181.183 207.117 181.66Z" fill="#0152B4"/>
<path d="M208.104 182.67C207.882 182.742 207.566 182.541 207.155 182.067C207.376 181.995 207.692 182.196 208.104 182.67Z" fill="#0152B4"/>
<path d="M50.6464 182.887C50.7265 183.106 50.5442 183.426 50.0945 183.844C50.0127 183.623 50.1984 183.306 50.6464 182.887Z" fill="#0C5FB9"/>
<path d="M358.486 123.24C358.389 122.99 358.559 122.648 359.028 122.257C359.135 122.521 358.944 122.834 358.486 123.24Z" fill="#1067BE"/>
<path d="M364.492 117.237C364.391 116.989 364.556 116.646 365.018 116.244C365.129 116.504 364.943 116.822 364.492 117.237Z" fill="#1067BE"/>
<path d="M363.501 118.249C363.402 117.997 363.568 117.653 364.036 117.262C364.147 117.529 363.957 117.842 363.501 118.249Z" fill="#1067BE"/>
<path d="M305.673 117.882C305.737 118.089 305.541 118.409 305.071 118.822C305.002 118.609 305.207 118.302 305.673 117.882Z" fill="#1067BE"/>
<path d="M362.504 119.252C362.404 118.999 362.571 118.655 363.04 118.267C363.151 118.535 362.96 118.848 362.504 119.252Z" fill="#1067BE"/>
<path d="M225.336 120.083C225.266 119.87 225.455 119.56 225.911 119.16C225.983 119.375 225.789 119.68 225.336 120.083Z" fill="#1067BE"/>
<path d="M304.641 118.892C304.714 119.11 304.525 119.424 304.065 119.823C303.989 119.601 304.185 119.295 304.641 118.892Z" fill="#1067BE"/>
<path d="M361.506 120.254C361.406 120.001 361.573 119.657 362.042 119.269C362.153 119.538 361.963 119.85 361.506 120.254Z" fill="#1067BE"/>
<path d="M224.335 121.081C224.267 120.871 224.458 120.562 224.914 120.162C224.984 120.375 224.789 120.679 224.335 121.081Z" fill="#1067BE"/>
<path d="M303.641 119.892C303.714 120.109 303.525 120.423 303.065 120.823C302.989 120.601 303.185 120.295 303.641 119.892Z" fill="#1067BE"/>
<path d="M360.507 121.255C360.408 121.002 360.574 120.658 361.044 120.27C361.155 120.54 360.964 120.851 360.507 121.255Z" fill="#1067BE"/>
<path d="M223.333 122.081C223.265 121.87 223.457 121.561 223.914 121.162C223.984 121.376 223.788 121.68 223.333 122.081Z" fill="#1067BE"/>
<path d="M365.461 116.217C365.37 115.974 365.545 115.636 366.016 115.242C366.117 115.498 365.922 115.81 365.461 116.217Z" fill="#1067BE"/>
<path d="M359.486 122.241C359.393 121.989 359.568 121.649 360.044 121.269C360.148 121.538 359.951 121.846 359.486 122.241Z" fill="#1067BE"/>
<path d="M228.529 116.252C228.414 116.007 228.56 115.654 229 115.228C229.126 115.485 228.958 115.815 228.529 116.252Z" fill="#1067BE"/>
<path d="M209.096 183.675C208.875 183.747 208.561 183.546 208.151 183.074C208.37 183.004 208.686 183.203 209.096 183.675Z" fill="#0152B4"/>
<path d="M140.673 115.506C140.865 115.459 141.106 115.614 141.182 115.888C141.016 116.005 140.723 115.708 140.673 115.506Z" fill="#1067BE"/>
<path d="M357.483 124.238C357.388 123.99 357.56 123.649 358.031 123.257C358.137 123.519 357.943 123.832 357.483 124.238Z" fill="#1067BE"/>
<path d="M356.468 125.226C356.378 124.98 356.556 124.642 357.031 124.255C357.132 124.515 356.934 124.825 356.468 125.226Z" fill="#1067BE"/>
<path d="M366.462 115.214C366.367 114.972 366.537 114.634 366.999 114.231C367.103 114.484 366.916 114.8 366.462 115.214Z" fill="#1067BE"/>
<path d="M309.701 113.973C309.751 114.171 309.543 114.466 309.077 114.857C309.026 114.659 309.235 114.364 309.701 113.973Z" fill="#1067BE"/>
<path d="M229.423 115.167C229.32 114.942 229.474 114.606 229.894 114.163C230.001 114.39 229.841 114.723 229.423 115.167Z" fill="#1067BE"/>
<path d="M353.482 128.234C353.387 127.986 353.558 127.645 354.028 127.255C354.134 127.517 353.941 127.829 353.482 128.234Z" fill="#1067BE"/>
<path d="M139.876 114.356C140.101 114.305 140.406 114.524 140.744 115.036C140.503 115.095 140.23 114.861 139.876 114.356Z" fill="#1067BE"/>
<path d="M352.462 129.221C352.373 128.975 352.551 128.639 353.027 128.254C353.127 128.514 352.928 128.822 352.462 129.221Z" fill="#1067BE"/>
<path d="M351.449 130.209C351.361 129.967 351.541 129.632 352.015 129.241C352.112 129.496 351.915 129.806 351.449 130.209Z" fill="#1067BE"/>
<path d="M367.444 114.198C367.353 113.956 367.531 113.624 367.999 113.229C368.097 113.481 367.904 113.794 367.444 114.198Z" fill="#1067BE"/>
<path d="M350.438 131.198C350.352 130.958 350.533 130.626 351.007 130.233C351.101 130.483 350.903 130.794 350.438 131.198Z" fill="#1067BE"/>
<path d="M310.693 112.96C310.758 113.162 310.568 113.459 310.126 113.856C310.062 113.656 310.251 113.356 310.693 112.96Z" fill="#1067BE"/>
<path d="M368.444 113.199C368.354 112.957 368.532 112.624 369.002 112.231C369.099 112.483 368.906 112.795 368.444 113.199Z" fill="#1067BE"/>
<path d="M323.554 100.792C323.641 101.036 323.459 101.369 322.983 101.756C322.887 101.502 323.086 101.192 323.554 100.792Z" fill="#1067BE"/>
<path d="M236.04 210.693C235.84 210.76 235.542 210.573 235.141 210.136C235.339 210.071 235.64 210.255 236.04 210.693Z" fill="#1067BE"/>
<path d="M237.054 211.703C236.856 211.762 236.554 211.568 236.15 211.117C236.348 211.056 236.649 211.252 237.054 211.703Z" fill="#1067BE"/>
<path d="M317.278 211.527C317.016 211.591 316.689 211.402 316.423 210.912C316.727 210.833 316.971 211.053 317.278 211.527Z" fill="#1067BE"/>
<path d="M318.095 212.667C317.866 212.721 317.565 212.499 317.221 211.988C317.46 211.929 317.742 212.159 318.095 212.667Z" fill="#0C5FB9"/>
<path d="M239.095 213.649C238.881 213.719 238.565 213.526 238.152 213.066C238.367 212.994 238.68 213.19 239.095 213.649Z" fill="#1067BE"/>
<path d="M240.105 214.645C239.888 214.718 239.574 214.53 239.175 214.071C239.396 213.995 239.702 214.19 240.105 214.645Z" fill="#1067BE"/>
<path d="M27.3735 214.751C27.5248 214.999 27.4229 215.355 27.0376 215.806C26.8763 215.553 26.9983 215.206 27.3735 214.751Z" fill="#0C5FB9"/>
<path d="M321.485 102.736C321.583 102.988 321.417 103.335 320.946 103.723C320.834 103.452 321.027 103.141 321.485 102.736Z" fill="#1067BE"/>
<path d="M241.105 215.642C240.886 215.716 240.573 215.527 240.175 215.067C240.397 214.991 240.704 215.185 241.105 215.642Z" fill="#1067BE"/>
<path d="M378.573 103.305C378.469 103.038 378.624 102.688 379.091 102.334C379.213 102.628 379.022 102.925 378.573 103.305Z" fill="#1067BE"/>
<path d="M26.6378 215.88C26.7299 216.095 26.5649 216.419 26.1452 216.857C26.0538 216.643 26.2173 216.316 26.6378 215.88Z" fill="#0C5FB9"/>
<path d="M322.533 101.768C322.619 102.019 322.434 102.354 321.948 102.725C321.852 102.458 322.058 102.156 322.533 101.768Z" fill="#1067BE"/>
<path d="M379.604 102.323C379.496 102.055 379.641 101.701 380.099 101.357C380.227 101.656 380.042 101.946 379.604 102.323Z" fill="#1067BE"/>
<path d="M24.5927 218.833C24.693 219.062 24.5292 219.398 24.0971 219.838C23.9954 219.609 24.1619 219.273 24.5927 218.833Z" fill="#0C5FB9"/>
<path d="M377.574 104.298C377.465 104.034 377.615 103.683 378.076 103.314C378.202 103.602 378.018 103.906 377.574 104.298Z" fill="#1067BE"/>
<path d="M380.637 101.319C380.519 101.055 380.65 100.698 381.095 100.333C381.235 100.625 381.06 100.925 380.637 101.319Z" fill="#1067BE"/>
<path d="M22.4546 221.751C22.5841 221.995 22.4533 222.352 22.038 222.804C21.9005 222.555 22.0474 222.209 22.4546 221.751Z" fill="#0C5FB9"/>
<path d="M324.559 99.7999C324.648 100.04 324.467 100.373 323.996 100.769C323.9 100.519 324.096 100.206 324.559 99.7999Z" fill="#1067BE"/>
<path d="M424.846 99.1389C425.057 99.0942 425.39 99.3431 425.832 99.8854C425.617 99.9301 425.292 99.6813 424.846 99.1389Z" fill="#0C5FB9"/>
<path d="M21.629 222.874C21.7291 223.092 21.5709 223.419 21.1588 223.86C21.0602 223.644 21.2155 223.313 21.629 222.874Z" fill="#0C5FB9"/>
<path d="M381.595 100.312C381.486 100.049 381.632 99.6945 382.091 99.3303C382.22 99.6208 382.035 99.9205 381.595 100.312Z" fill="#1067BE"/>
<path d="M19.5634 225.813C19.6737 226.046 19.5206 226.387 19.0988 226.837C18.9868 226.605 19.1433 226.263 19.5634 225.813Z" fill="#0C5FB9"/>
<path d="M227.68 117.305C227.546 117.051 227.654 116.69 228.072 116.292C228.229 116.571 228.076 116.884 227.68 117.305Z" fill="#1067BE"/>
<path d="M329.644 94.8918C329.714 95.107 329.523 95.4211 329.06 95.8206C328.986 95.601 329.185 95.2959 329.644 94.8918Z" fill="#1067BE"/>
<path d="M330.65 93.9008C330.718 94.1136 330.526 94.4256 330.063 94.8236C329.992 94.6064 330.191 94.3032 330.65 93.9008Z" fill="#1067BE"/>
<path d="M331.645 92.8971C331.718 93.1142 331.529 93.4274 331.07 93.8264C330.995 93.6059 331.189 93.2995 331.645 92.8971Z" fill="#1067BE"/>
<path d="M332.658 91.912C332.726 92.1265 332.532 92.4348 332.07 92.827C331.999 92.6091 332.198 92.3075 332.658 91.912Z" fill="#1067BE"/>
<path d="M319.52 238.218C319.378 237.987 319.491 237.635 319.865 237.159C320.008 237.389 319.891 237.743 319.52 238.218Z" fill="#0C5FB9"/>
<path d="M333.671 90.9258C333.735 91.1329 333.542 91.4385 333.084 91.834C333.018 91.6241 333.215 91.3242 333.671 90.9258Z" fill="#1067BE"/>
<path d="M38.6675 198.919C38.7546 199.13 38.5838 199.444 38.1616 199.866C38.0767 199.657 38.2432 199.339 38.6675 198.919Z" fill="#0C5FB9"/>
<path d="M210.108 184.667C209.884 184.744 209.567 184.547 209.149 184.082C209.37 184.006 209.692 184.2 210.108 184.667Z" fill="#0152B4"/>
<path d="M211.11 185.665C210.886 185.741 210.569 185.542 210.153 185.072C210.375 184.997 210.696 185.194 211.11 185.665Z" fill="#0152B4"/>
<path d="M372.432 109.191C372.348 108.954 372.531 108.623 373.005 108.229C373.097 108.477 372.898 108.787 372.432 109.191Z" fill="#1067BE"/>
<path d="M212.059 186.696C211.85 186.756 211.546 186.548 211.149 186.071C211.359 186.01 211.661 186.219 212.059 186.696Z" fill="#0152B4"/>
<path d="M213.053 187.703C212.848 187.765 212.543 187.566 212.136 187.108C212.34 187.046 212.647 187.243 213.053 187.703Z" fill="#0152B4"/>
<path d="M316.407 107.684C316.514 107.948 316.365 108.303 315.902 108.661C315.776 108.368 315.963 108.07 316.407 107.684Z" fill="#1067BE"/>
<path d="M214.053 188.702C213.847 188.766 213.542 188.567 213.135 188.108C213.34 188.046 213.647 188.243 214.053 188.702Z" fill="#0152B4"/>
<path d="M215.049 189.702C214.843 189.766 214.539 189.567 214.134 189.109C214.339 189.047 214.646 189.243 215.049 189.702Z" fill="#0152B4"/>
<path d="M216.027 190.718C215.834 190.771 215.539 190.567 215.136 190.109C215.327 190.058 215.626 190.26 216.027 190.718Z" fill="#0152B4"/>
<path d="M217.063 191.712C216.871 191.772 216.559 191.578 216.135 191.128C216.33 191.067 216.637 191.264 217.063 191.712Z" fill="#0152B4"/>
<path d="M42.431 193.764C42.5738 194.01 42.457 194.364 42.0638 194.82C41.9153 194.572 42.0434 194.221 42.431 193.764Z" fill="#0C5FB9"/>
<path d="M373.444 108.216C373.367 107.971 373.559 107.641 374.053 107.279C374.141 107.543 373.927 107.837 373.444 108.216Z" fill="#1067BE"/>
<path d="M222.952 197.799C223.002 198.121 222.994 198.293 222.989 198.723C222.766 198.686 222.541 198.392 222.451 197.828C222.585 197.557 222.895 197.649 222.952 197.799Z" fill="#0152B4"/>
<path d="M317.455 106.704C317.553 106.966 317.389 107.315 316.912 107.672C316.798 107.384 316.996 107.087 317.455 106.704Z" fill="#1067BE"/>
<path d="M317.332 241.087C317.26 240.876 317.449 240.564 317.9 240.153C317.973 240.365 317.783 240.676 317.332 241.087Z" fill="#0C5FB9"/>
<path d="M226.309 201.432C226.044 201.533 225.694 201.375 225.347 200.906C225.641 200.787 225.932 200.981 226.309 201.432Z" fill="#1067BE"/>
<path d="M36.6131 201.856C36.7133 202.079 36.5535 202.41 36.1341 202.853C36.0341 202.631 36.1936 202.297 36.6131 201.856Z" fill="#0C5FB9"/>
<path d="M227.29 202.448C227.029 202.55 226.679 202.391 226.312 201.921C226.598 201.803 226.899 201.994 227.29 202.448Z" fill="#1067BE"/>
<path d="M374.526 107.281C374.431 107.022 374.599 106.675 375.076 106.313C375.187 106.596 374.988 106.895 374.526 107.281Z" fill="#1067BE"/>
<path d="M318.464 105.719C318.565 105.977 318.402 106.325 317.931 106.703C317.815 106.425 318.007 106.117 318.464 105.719Z" fill="#1067BE"/>
<path d="M34.5262 204.785C34.6441 205.023 34.4978 205.371 34.0767 205.826C33.9553 205.586 34.1087 205.241 34.5262 204.785Z" fill="#0C5FB9"/>
<path d="M33.6718 205.917C33.7522 206.122 33.5796 206.434 33.1595 206.862C33.081 206.66 33.2499 206.343 33.6718 205.917Z" fill="#0C5FB9"/>
<path d="M375.572 106.289C375.459 106.033 375.605 105.678 376.059 105.287C376.188 105.564 376.009 105.878 375.572 106.289Z" fill="#1067BE"/>
<path d="M319.455 104.717C319.56 104.974 319.401 105.325 318.935 105.709C318.816 105.431 319.004 105.121 319.455 104.717Z" fill="#1067BE"/>
<path d="M376.529 105.28C376.431 105.02 376.597 104.674 377.072 104.312C377.184 104.596 376.988 104.895 376.529 105.28Z" fill="#1067BE"/>
<path d="M232.249 207.468C232.002 207.583 231.652 207.436 231.232 206.996C231.49 206.871 231.819 207.038 232.249 207.468Z" fill="#1067BE"/>
<path d="M233.304 208.307C233.053 208.444 232.692 208.342 232.295 207.933C232.571 207.772 232.883 207.92 233.304 208.307Z" fill="#1067BE"/>
<path d="M314.268 208.224C314.028 208.376 313.675 208.308 313.276 207.938C313.538 207.758 313.846 207.88 314.268 208.224Z" fill="#1067BE"/>
<path d="M320.485 103.729C320.581 103.984 320.411 104.33 319.934 104.705C319.824 104.429 320.022 104.124 320.485 103.729Z" fill="#1067BE"/>
</svg>
